<svg xmlns="http://www.w3.org/2000/svg" xmlns:v="https://svgstorm.com"
viewBox = "0 0 1280 1280"
width="1280"
height="1280">
<g fill="None" fill-opacity="0.0" stroke="#000000" stroke-opacity="0.00" stroke-width="0.3"><path d="
M 0.00 1280.00 
L 1280.00 1280.00
L 1280.00 0.00
L 0.00 0.00
L 0.00 1280.00
M 711.00 220.00 
C 721.88 220.19 733.08 225.22 741.75 232.25 C 750.42 239.28 754.57 248.95 759.92 258.08 C 765.28 267.20 771.12 276.41 776.30 285.70 C 781.49 294.98 787.45 303.97 792.77 313.23 C 798.09 322.49 803.52 331.87 808.92 341.08 C 814.31 350.30 820.12 359.40 825.30 368.70 C 830.49 377.99 836.33 387.14 841.75 396.25 C 847.18 405.35 852.29 415.28 857.77 424.23 C 863.25 433.18 869.27 443.02 873.92 452.08 C 878.57 461.14 886.72 469.97 889.92 479.08 C 893.13 488.19 907.31 498.08 902.69 507.69 C 898.08 517.31 892.07 525.73 886.23 535.23 C 880.39 544.73 877.61 553.67 870.08 563.08 C 862.54 572.48 863.69 582.40 871.30 591.70 C 878.92 601.00 881.13 610.05 887.77 619.23 C 894.41 628.41 897.60 638.02 903.77 647.23 C 909.94 656.44 914.27 665.41 920.25 674.75 C 926.24 684.09 930.07 693.22 936.31 702.70 C 942.54 712.17 946.79 724.04 946.00 736.00 C 945.21 747.96 942.84 759.39 934.08 768.08 C 925.33 776.77 917.77 781.34 905.00 783.00 C 892.23 784.65 875.92 783.92 862.00 784.00 C 848.08 784.08 832.30 783.98 818.00 784.00 C 803.70 784.02 788.42 784.04 774.00 784.00 C 759.58 783.96 744.38 784.12 730.00 784.00 C 715.62 783.88 700.16 784.29 686.00 784.00 C 671.84 783.71 655.60 784.65 642.00 784.00 C 628.40 783.35 611.37 785.48 599.00 784.00 C 586.63 782.52 587.70 766.29 580.23 758.77 C 572.76 751.25 571.18 738.96 563.75 731.25 C 556.31 723.55 557.08 707.33 544.00 707.00 C 530.92 706.68 513.79 707.09 500.00 707.00 C 486.21 706.91 469.92 706.91 456.00 707.00 C 442.08 707.09 425.55 706.68 412.00 707.00 C 398.45 707.32 383.75 707.86 372.77 702.23 C 361.80 696.60 356.07 690.94 350.08 680.92 C 344.09 670.90 342.35 656.37 345.33 645.33 C 348.31 634.29 355.13 626.01 360.30 616.30 C 365.47 606.59 371.54 598.28 376.77 588.77 C 382.00 579.26 387.63 570.30 392.92 560.92 C 398.20 551.53 404.00 542.62 409.30 533.30 C 414.61 523.99 420.03 514.82 425.75 505.75 C 431.48 496.69 435.80 486.68 441.77 477.77 C 447.75 468.86 452.07 458.82 457.92 449.92 C 463.78 441.03 468.46 431.06 474.30 422.30 C 480.14 413.54 483.77 403.48 490.31 395.30 C 496.84 387.13 497.97 372.53 509.00 370.00 C 520.04 367.47 541.53 372.39 553.00 370.00 C 564.47 367.61 586.48 375.05 594.30 367.30 C 602.12 359.55 604.26 348.36 610.77 339.77 C 617.28 331.18 620.95 320.85 626.92 311.92 C 632.89 302.99 637.73 293.46 643.25 284.25 C 648.78 275.05 654.08 265.97 659.75 256.75 C 665.43 247.54 669.03 238.00 678.25 231.25 C 687.46 224.50 699.14 219.79 711.00 220.00
M 628.00 802.00 
C 644.24 806.02 636.49 834.12 619.93 828.07 C 603.37 822.03 610.32 797.62 628.00 802.00
M 675.00 866.00 
C 680.98 855.76 688.15 854.33 694.75 843.75 C 701.36 833.18 716.79 833.97 729.00 835.00
C 718.84 847.78 707.12 860.57 695.00 872.00
C 705.59 887.37 722.76 899.44 733.00 915.00
C 718.97 917.75 704.80 914.83 697.25 903.75 C 689.70 892.67 681.49 890.04 674.00 880.00
C 674.63 885.49 674.12 893.68 674.00 899.00 C 673.88 904.32 676.28 913.22 671.00 915.00
C 665.32 916.92 657.85 913.56 652.00 915.00
C 651.63 903.85 652.50 894.31 652.00 883.00 C 651.50 871.69 652.92 861.75 652.00 850.00 C 651.08 838.25 653.97 829.70 652.00 817.00 C 650.03 804.30 659.18 801.27 672.00 804.00
C 676.81 806.38 673.49 817.42 674.00 823.00 C 674.51 828.58 674.36 838.74 674.00 845.00 C 673.64 851.26 675.05 860.44 675.00 866.00
M 434.00 834.00 
C 435.66 836.34 442.52 834.78 445.00 835.00
C 448.77 835.22 446.75 845.02 447.00 849.00 C 447.25 852.98 437.30 854.57 434.00 853.00
C 431.58 862.73 435.26 873.98 434.00 884.00 C 432.74 894.02 434.95 904.90 434.00 915.00
C 427.00 915.00 420.00 915.00 413.00 915.00
C 413.00 894.33 413.00 873.67 413.00 853.00
C 410.05 854.40 400.60 853.26 402.01 848.99 C 403.42 844.72 399.42 837.51 403.00 835.00
C 406.71 832.41 412.81 840.37 412.97 831.97 C 413.13 823.57 412.91 813.55 413.00 805.00
C 420.00 805.00 427.00 805.00 434.00 805.00
C 434.00 814.67 434.00 824.34 434.00 834.00
M 336.00 904.00 
C 338.85 900.89 346.07 887.85 351.22 890.78 C 356.38 893.71 365.77 903.44 372.69 896.69 C 379.62 889.95 367.64 884.54 361.92 882.08 C 356.21 879.62 348.16 874.71 343.75 869.25 C 339.35 863.78 336.70 852.56 341.31 846.31 C 345.91 840.05 349.98 834.53 358.22 833.22 C 366.47 831.92 376.19 832.42 383.69 837.31 C 391.20 842.19 395.75 844.91 386.75 852.75 C 377.76 860.60 379.15 853.73 367.99 852.01 C 356.83 850.29 360.15 861.29 368.70 863.31 C 377.24 865.32 380.99 869.84 387.70 874.30 C 394.41 878.77 396.28 890.22 394.67 897.67 C 393.06 905.12 387.86 910.45 380.92 913.92 C 373.99 917.40 362.74 917.80 354.98 916.02 C 347.21 914.25 341.74 909.47 336.00 904.00
M 484.00 870.00 
C 483.75 876.67 484.91 885.57 484.00 892.00 C 483.09 898.43 486.64 907.70 483.00 913.00
C 479.59 917.98 468.00 913.43 462.00 915.00
C 462.00 888.33 462.00 861.67 462.00 835.00
C 469.68 836.09 482.81 830.98 482.00 842.00
C 485.79 834.40 492.93 831.71 502.00 833.00 C 511.07 834.29 502.07 846.20 501.00 852.00
C 489.39 846.93 482.73 860.06 484.00 870.00
M 565.00 833.00 
C 595.45 837.95 610.10 879.91 589.25 902.25 C 568.39 924.58 528.80 923.04 516.08 891.92 C 503.35 860.81 529.81 827.28 565.00 833.00
M 784.00 833.00 
C 815.16 838.06 828.89 880.18 807.75 902.75 C 786.62 925.32 746.55 921.63 734.23 890.77 C 721.91 859.91 750.39 827.54 784.00 833.00
M 850.00 874.00 
C 850.00 885.28 853.06 903.06 849.00 913.00
C 848.87 914.06 849.14 914.55 848.00 915.00
C 842.25 917.29 833.98 913.28 828.00 915.00
C 828.00 888.33 828.00 861.67 828.00 835.00
C 835.17 836.92 851.92 829.69 850.00 842.00
C 862.82 829.70 889.13 828.05 898.00 846.00
C 909.34 832.31 938.48 824.46 949.30 843.70 C 960.12 862.93 950.92 893.00 954.00 915.00
C 947.00 915.00 940.00 915.00 933.00 915.00
C 933.44 898.15 932.85 880.42 932.00 864.00 C 931.16 847.58 907.09 848.22 903.70 863.70 C 900.30 879.17 902.73 898.61 902.00 915.00
C 890.09 917.15 877.57 915.85 880.00 903.00 C 882.43 890.15 878.26 880.47 880.00 869.00 C 881.74 857.53 873.02 850.33 863.00 852.00 C 852.98 853.67 849.38 865.15 850.00 874.00
M 634.00 835.00 
C 632.83 861.83 635.93 888.80 634.00 915.00
C 627.00 915.00 620.00 915.00 613.00 915.00
C 613.00 888.33 613.00 861.67 613.00 835.00
C 620.00 835.00 627.00 835.00 634.00 835.00
M 968.00 1058.00 
C 965.13 1063.81 950.69 1058.71 944.00 1060.00 C 937.30 1061.29 925.91 1059.44 918.00 1060.00 C 910.09 1060.56 899.40 1059.74 891.00 1060.00 C 882.60 1060.26 873.64 1059.89 865.00 1060.00 C 856.36 1060.11 846.72 1059.95 838.00 1060.00 C 829.28 1060.05 820.74 1059.98 812.00 1060.00 C 803.26 1060.02 794.79 1059.99 786.00 1060.00 C 777.21 1060.01 767.81 1059.99 759.00 1060.00 C 750.19 1060.01 741.82 1060.00 733.00 1060.00 C 724.18 1060.00 714.81 1060.00 706.00 1060.00 C 697.19 1060.00 688.77 1060.00 680.00 1060.00 C 671.23 1060.00 662.81 1060.00 654.00 1060.00 C 645.19 1060.00 635.82 1060.00 627.00 1060.00 C 618.18 1060.00 609.82 1060.00 601.00 1060.00 C 592.18 1060.00 582.81 1060.00 574.00 1060.00 C 565.19 1060.00 556.77 1060.00 548.00 1060.00 C 539.23 1060.00 530.80 1060.01 522.00 1060.00 C 513.20 1059.99 503.81 1060.01 495.00 1060.00 C 486.19 1059.99 477.78 1060.03 469.00 1060.00 C 460.22 1059.97 450.73 1060.06 442.00 1060.00 C 433.27 1059.94 424.58 1060.13 416.00 1060.00 C 407.42 1059.87 398.37 1060.28 390.00 1060.00 C 381.63 1059.72 370.89 1060.61 363.00 1060.00 C 355.11 1059.39 343.68 1061.39 337.00 1060.00 C 330.32 1058.61 314.92 1063.90 312.00 1058.00
C 308.42 1050.77 313.62 1039.20 312.00 1031.00 C 310.38 1022.80 312.73 1012.64 312.00 1004.00 C 311.27 995.36 312.34 985.83 312.00 977.00 C 311.66 968.17 312.18 958.91 312.00 950.00 C 311.82 941.09 312.13 931.93 312.00 923.00
C 530.67 923.00 749.33 923.00 968.00 923.00
C 968.00 968.00 968.00 1013.00 968.00 1058.00 Z"/>
</g>
<g fill="None" fill-opacity="0.0" stroke="#FEFFFE" stroke-opacity="0.97" stroke-width="0.3"><path d="
M 711.00 220.00 
C 699.14 219.79 687.46 224.50 678.25 231.25 C 669.03 238.00 665.43 247.54 659.75 256.75 C 654.08 265.97 648.78 275.05 643.25 284.25 C 637.73 293.46 632.89 302.99 626.92 311.92 C 620.95 320.85 617.28 331.18 610.77 339.77 C 604.26 348.36 602.12 359.55 594.30 367.30 C 586.48 375.05 564.47 367.61 553.00 370.00 C 541.53 372.39 520.04 367.47 509.00 370.00 C 497.97 372.53 496.84 387.13 490.31 395.30 C 483.77 403.48 480.14 413.54 474.30 422.30 C 468.46 431.06 463.78 441.03 457.92 449.92 C 452.07 458.82 447.75 468.86 441.77 477.77 C 435.80 486.68 431.48 496.69 425.75 505.75 C 420.03 514.82 414.61 523.99 409.30 533.30 C 404.00 542.62 398.20 551.53 392.92 560.92 C 387.63 570.30 382.00 579.26 376.77 588.77 C 371.54 598.28 365.47 606.59 360.30 616.30 C 355.13 626.01 348.31 634.29 345.33 645.33 C 342.35 656.37 344.09 670.90 350.08 680.92 C 356.07 690.94 361.80 696.60 372.77 702.23 C 383.75 707.86 398.45 707.32 412.00 707.00 C 425.55 706.68 442.08 707.09 456.00 707.00 C 469.92 706.91 486.21 706.91 500.00 707.00 C 513.79 707.09 530.92 706.68 544.00 707.00 C 557.08 707.33 556.31 723.55 563.75 731.25 C 571.18 738.96 572.76 751.25 580.23 758.77 C 587.70 766.29 586.63 782.52 599.00 784.00 C 611.37 785.48 628.40 783.35 642.00 784.00 C 655.60 784.65 671.84 783.71 686.00 784.00 C 700.16 784.29 715.62 783.88 730.00 784.00 C 744.38 784.12 759.58 783.96 774.00 784.00 C 788.42 784.04 803.70 784.02 818.00 784.00 C 832.30 783.98 848.08 784.08 862.00 784.00 C 875.92 783.92 892.23 784.65 905.00 783.00 C 917.77 781.34 925.33 776.77 934.08 768.08 C 942.84 759.39 945.21 747.96 946.00 736.00 C 946.79 724.04 942.54 712.17 936.31 702.70 C 930.07 693.22 926.24 684.09 920.25 674.75 C 914.27 665.41 909.94 656.44 903.77 647.23 C 897.60 638.02 894.41 628.41 887.77 619.23 C 881.13 610.05 878.92 601.00 871.30 591.70 C 863.69 582.40 862.54 572.48 870.08 563.08 C 877.61 553.67 880.39 544.73 886.23 535.23 C 892.07 525.73 898.08 517.31 902.69 507.69 C 907.31 498.08 893.13 488.19 889.92 479.08 C 886.72 469.97 878.57 461.14 873.92 452.08 C 869.27 443.02 863.25 433.18 857.77 424.23 C 852.29 415.28 847.18 405.35 841.75 396.25 C 836.33 387.14 830.49 377.99 825.30 368.70 C 820.12 359.40 814.31 350.30 808.92 341.08 C 803.52 331.87 798.09 322.49 792.77 313.23 C 787.45 303.97 781.49 294.98 776.30 285.70 C 771.12 276.41 765.28 267.20 759.92 258.08 C 754.57 248.95 750.42 239.28 741.75 232.25 C 733.08 225.22 721.88 220.19 711.00 220.00
M 749.00 607.00 
C 746.49 602.84 735.18 607.14 730.00 606.00 C 724.82 604.86 715.16 606.52 709.00 606.00 C 702.84 605.48 694.59 606.24 688.00 606.00 C 681.41 605.76 673.74 606.11 667.00 606.00 C 660.26 605.89 653.83 606.05 647.00 606.00 C 640.17 605.95 632.91 606.02 626.00 606.00 C 619.09 605.98 611.92 606.02 605.00 606.00 C 598.08 605.98 590.87 606.02 584.00 606.00 C 577.13 605.98 570.85 606.04 564.00 606.00 C 557.15 605.96 549.82 606.09 543.00 606.00 C 536.18 605.91 528.68 606.19 522.00 606.00 C 515.32 605.81 507.32 606.42 501.00 606.00 C 494.68 605.58 484.89 608.08 487.00 603.00
C 498.00 576.53 519.30 554.57 530.00 528.00
C 536.14 533.06 539.32 540.79 543.77 548.23 C 548.22 555.67 551.95 561.55 556.30 569.70 C 560.66 577.84 564.46 581.66 568.92 591.08 C 573.38 600.50 578.83 590.18 582.75 582.75 C 586.67 575.33 590.78 568.14 594.92 560.92 C 599.07 553.71 603.74 547.02 607.77 539.77 C 611.80 532.52 616.12 525.48 620.30 518.30 C 624.48 511.13 628.70 504.06 632.92 496.92 C 637.14 489.78 641.16 482.48 645.31 475.31 C 649.45 468.13 654.01 461.21 657.92 453.92 C 661.84 446.64 666.79 440.02 670.77 432.77 C 674.75 425.52 679.04 418.41 683.25 411.25 C 687.47 404.10 691.42 396.92 695.77 389.77 C 700.12 382.63 704.24 374.71 709.00 368.00
C 725.16 393.45 741.52 420.07 755.00 447.00
C 727.00 447.00 699.00 447.00 671.00 447.00
C 714.02 525.38 761.35 602.18 806.00 680.00
C 773.59 681.65 739.39 681.67 707.00 680.00
C 720.64 655.45 735.99 631.73 749.00 607.00
M 576.00 397.00 
C 531.45 475.42 483.14 552.16 440.00 631.00
C 528.33 631.00 616.67 631.00 705.00 631.00
C 699.48 641.90 694.14 649.19 688.08 660.08 C 682.02 670.97 678.19 683.15 663.00 681.00 C 647.81 678.85 632.23 681.99 617.00 681.00 C 601.77 680.01 586.19 681.50 571.00 681.00 C 555.81 680.50 540.05 681.34 525.00 681.00 C 509.95 680.66 493.72 681.41 479.00 681.00 C 464.28 680.59 446.98 681.75 433.00 681.00 C 419.02 680.25 400.28 683.18 388.33 679.67 C 376.37 676.17 369.64 662.08 371.33 651.33 C 373.02 640.58 383.40 631.70 387.77 621.77 C 392.14 611.84 399.56 602.49 404.77 592.77 C 409.98 583.05 416.25 573.43 421.77 563.77 C 427.29 554.11 433.06 544.39 438.77 534.77 C 444.48 525.15 450.01 515.41 455.77 505.77 C 461.53 496.13 466.85 486.39 472.77 476.77 C 478.69 467.15 483.64 457.40 489.77 447.77 C 495.90 438.14 500.26 428.47 506.77 418.77 C 513.28 409.08 515.41 394.58 530.00 396.00 C 544.59 397.42 561.46 394.85 576.00 397.00
M 581.00 707.00 
C 670.92 706.33 761.50 708.33 851.00 706.00
C 807.04 627.96 760.03 551.01 716.00 473.00
C 730.53 473.15 749.97 472.80 764.00 473.00 C 778.04 473.20 779.64 489.76 786.77 499.23 C 793.90 508.70 798.43 520.20 804.92 530.08 C 811.40 539.96 816.49 550.19 822.77 560.23 C 829.05 570.27 834.42 581.13 840.77 591.23 C 847.12 601.32 852.59 611.94 858.92 622.08 C 865.24 632.23 870.77 642.84 876.92 653.08 C 883.08 663.31 888.60 672.87 894.77 683.23 C 900.95 693.59 906.53 703.53 912.92 714.08 C 919.31 724.63 923.23 740.15 911.75 749.75 C 900.28 759.35 887.38 758.11 872.00 758.00 C 856.62 757.89 838.89 757.96 823.00 758.00 C 807.11 758.04 790.11 757.79 774.00 758.00 C 757.89 758.21 741.17 757.48 725.00 758.00 C 708.83 758.52 693.23 756.80 677.00 758.00 C 660.77 759.20 644.33 755.38 628.00 758.00 C 611.67 760.62 604.18 751.51 598.70 738.31 C 593.21 725.10 585.13 720.19 581.00 707.00 Z"/>
</g>
<g fill="None" fill-opacity="0.0" stroke="#000000" stroke-opacity="0.00" stroke-width="0.3"><path d="
M 487.00 603.00 
C 493.86 601.27 503.72 605.36 512.00 604.00 C 520.28 602.64 530.34 604.61 539.00 604.00 C 547.66 603.39 557.18 604.27 566.00 604.00 C 574.82 603.73 584.14 604.12 593.00 604.00 C 601.86 603.88 611.20 604.04 620.00 604.00 C 628.80 603.96 637.30 603.98 646.00 604.00 C 654.70 604.02 664.48 603.91 673.00 604.00 C 681.52 604.09 691.98 603.79 700.00 604.00 C 708.02 604.21 720.13 603.53 727.00 604.00 C 733.87 604.47 749.55 601.61 749.00 607.00
C 735.99 631.73 720.64 655.45 707.00 680.00
C 739.39 681.67 773.59 681.65 806.00 680.00
C 761.35 602.18 714.02 525.38 671.00 447.00
C 699.00 447.00 727.00 447.00 755.00 447.00
C 741.52 420.07 725.16 393.45 709.00 368.00
C 704.24 374.71 700.12 382.63 695.77 389.77 C 691.42 396.92 687.47 404.10 683.25 411.25 C 679.04 418.41 674.75 425.52 670.77 432.77 C 666.79 440.02 661.84 446.64 657.92 453.92 C 654.01 461.21 649.45 468.13 645.31 475.31 C 641.16 482.48 637.14 489.78 632.92 496.92 C 628.70 504.06 624.48 511.13 620.30 518.30 C 616.12 525.48 611.80 532.52 607.77 539.77 C 603.74 547.02 599.07 553.71 594.92 560.92 C 590.78 568.14 586.67 575.33 582.75 582.75 C 578.83 590.18 573.38 600.50 568.92 591.08 C 564.46 581.66 560.66 577.84 556.30 569.70 C 551.95 561.55 548.22 555.67 543.77 548.23 C 539.32 540.79 536.14 533.06 530.00 528.00
C 519.30 554.57 498.00 576.53 487.00 603.00 Z"/>
</g>
<g fill="None" fill-opacity="0.0" stroke="#000000" stroke-opacity="0.00" stroke-width="0.3"><path d="
M 576.00 397.00 
C 561.46 394.85 544.59 397.42 530.00 396.00 C 515.41 394.58 513.28 409.08 506.77 418.77 C 500.26 428.47 495.90 438.14 489.77 447.77 C 483.64 457.40 478.69 467.15 472.77 476.77 C 466.85 486.39 461.53 496.13 455.77 505.77 C 450.01 515.41 444.48 525.15 438.77 534.77 C 433.06 544.39 427.29 554.11 421.77 563.77 C 416.25 573.43 409.98 583.05 404.77 592.77 C 399.56 602.49 392.14 611.84 387.77 621.77 C 383.40 631.70 373.02 640.58 371.33 651.33 C 369.64 662.08 376.37 676.17 388.33 679.67 C 400.28 683.18 419.02 680.25 433.00 681.00 C 446.98 681.75 464.28 680.59 479.00 681.00 C 493.72 681.41 509.95 680.66 525.00 681.00 C 540.05 681.34 555.81 680.50 571.00 681.00 C 586.19 681.50 601.77 680.01 617.00 681.00 C 632.23 681.99 647.81 678.85 663.00 681.00 C 678.19 683.15 682.02 670.97 688.08 660.08 C 694.14 649.19 699.48 641.90 705.00 631.00
C 616.67 631.00 528.33 631.00 440.00 631.00
C 483.14 552.16 531.45 475.42 576.00 397.00 Z"/>
</g>
<g fill="None" fill-opacity="0.0" stroke="#000000" stroke-opacity="0.00" stroke-width="0.3"><path d="
M 581.00 707.00 
C 585.13 720.19 593.21 725.10 598.70 738.31 C 604.18 751.51 611.67 760.62 628.00 758.00 C 644.33 755.38 660.77 759.20 677.00 758.00 C 693.23 756.80 708.83 758.52 725.00 758.00 C 741.17 757.48 757.89 758.21 774.00 758.00 C 790.11 757.79 807.11 758.04 823.00 758.00 C 838.89 757.96 856.62 757.89 872.00 758.00 C 887.38 758.11 900.28 759.35 911.75 749.75 C 923.23 740.15 919.31 724.63 912.92 714.08 C 906.53 703.53 900.95 693.59 894.77 683.23 C 888.60 672.87 883.08 663.31 876.92 653.08 C 870.77 642.84 865.24 632.23 858.92 622.08 C 852.59 611.94 847.12 601.32 840.77 591.23 C 834.42 581.13 829.05 570.27 822.77 560.23 C 816.49 550.19 811.40 539.96 804.92 530.08 C 798.43 520.20 793.90 508.70 786.77 499.23 C 779.64 489.76 778.04 473.20 764.00 473.00 C 749.97 472.80 730.53 473.15 716.00 473.00
C 760.03 551.01 807.04 627.96 851.00 706.00
C 761.50 708.33 670.92 706.33 581.00 707.00 Z"/>
</g>
<g fill="None" fill-opacity="0.0" stroke="#FEFEFE" stroke-opacity="0.54" stroke-width="0.3"><path d="
M 749.00 607.00 
C 749.55 601.61 733.87 604.47 727.00 604.00 C 720.13 603.53 708.02 604.21 700.00 604.00 C 691.98 603.79 681.52 604.09 673.00 604.00 C 664.48 603.91 654.70 604.02 646.00 604.00 C 637.30 603.98 628.80 603.96 620.00 604.00 C 611.20 604.04 601.86 603.88 593.00 604.00 C 584.14 604.12 574.82 603.73 566.00 604.00 C 557.18 604.27 547.66 603.39 539.00 604.00 C 530.34 604.61 520.28 602.64 512.00 604.00 C 503.72 605.36 493.86 601.27 487.00 603.00
C 484.89 608.08 494.68 605.58 501.00 606.00 C 507.32 606.42 515.32 605.81 522.00 606.00 C 528.68 606.19 536.18 605.91 543.00 606.00 C 549.82 606.09 557.15 605.96 564.00 606.00 C 570.85 606.04 577.13 605.98 584.00 606.00 C 590.87 606.02 598.08 605.98 605.00 606.00 C 611.92 606.02 619.09 605.98 626.00 606.00 C 632.91 606.02 640.17 605.95 647.00 606.00 C 653.83 606.05 660.26 605.89 667.00 606.00 C 673.74 606.11 681.41 605.76 688.00 606.00 C 694.59 606.24 702.84 605.48 709.00 606.00 C 715.16 606.52 724.82 604.86 730.00 606.00 C 735.18 607.14 746.49 602.84 749.00 607.00 Z"/>
</g>
<g fill="None" fill-opacity="0.0" stroke="#FEFEFE" stroke-opacity="0.90" stroke-width="0.3"><path d="
M 628.00 802.00 
C 610.32 797.62 603.37 822.03 619.93 828.07 C 636.49 834.12 644.24 806.02 628.00 802.00 Z"/>
</g>
<g fill="None" fill-opacity="0.0" stroke="#FEFEFE" stroke-opacity="0.94" stroke-width="0.3"><path d="
M 671.00 915.00 
C 675.11 912.04 670.42 900.75 672.00 896.00 C 673.58 891.25 670.05 881.71 673.00 877.00
C 675.38 877.39 671.94 879.67 674.00 880.00
C 681.49 890.04 689.70 892.67 697.25 903.75 C 704.80 914.83 718.97 917.75 733.00 915.00
C 722.76 899.44 705.59 887.37 695.00 872.00
C 707.12 860.57 718.84 847.78 729.00 835.00
C 716.79 833.97 701.36 833.18 694.75 843.75 C 688.15 854.33 680.98 855.76 675.00 866.00
C 675.14 865.76 675.12 869.44 673.00 869.00
C 670.68 847.83 672.66 825.58 672.00 804.00
C 659.18 801.27 650.03 804.30 652.00 817.00 C 653.97 829.70 651.08 838.25 652.00 850.00 C 652.92 861.75 651.50 871.69 652.00 883.00 C 652.50 894.31 651.63 903.85 652.00 915.00
C 657.85 913.56 665.32 916.92 671.00 915.00 Z"/>
</g>
<g fill="None" fill-opacity="0.0" stroke="#FEFEFE" stroke-opacity="0.53" stroke-width="0.3"><path d="
M 675.00 866.00 
C 675.05 860.44 673.64 851.26 674.00 845.00 C 674.36 838.74 674.51 828.58 674.00 823.00 C 673.49 817.42 676.81 806.38 672.00 804.00
C 672.66 825.58 670.68 847.83 673.00 869.00
C 675.12 869.44 675.14 865.76 675.00 866.00 Z"/>
</g>
<g fill="None" fill-opacity="0.0" stroke="#FEFEFE" stroke-opacity="0.96" stroke-width="0.3"><path d="
M 403.00 835.00 
C 404.77 839.94 403.72 845.67 404.00 851.00
C 406.44 851.40 414.33 849.70 413.00 853.00
C 413.00 873.67 413.00 894.33 413.00 915.00
C 420.00 915.00 427.00 915.00 434.00 915.00
C 434.95 904.90 432.74 894.02 434.00 884.00 C 435.26 873.98 431.58 862.73 434.00 853.00
C 434.81 849.73 440.83 851.35 445.00 851.00
C 445.00 846.00 445.00 841.00 445.00 836.00
C 440.87 836.37 434.69 836.77 434.00 834.00
C 434.00 824.34 434.00 814.67 434.00 805.00
C 427.00 805.00 420.00 805.00 413.00 805.00
C 412.91 813.55 413.13 823.57 412.97 831.97 C 412.81 840.37 406.71 832.41 403.00 835.00 Z"/>
</g>
<g fill="None" fill-opacity="0.0" stroke="#FEFEFE" stroke-opacity="0.92" stroke-width="0.3"><path d="
M 336.00 904.00 
C 341.74 909.47 347.21 914.25 354.98 916.02 C 362.74 917.80 373.99 917.40 380.92 913.92 C 387.86 910.45 393.06 905.12 394.67 897.67 C 396.28 890.22 394.41 878.77 387.70 874.30 C 380.99 869.84 377.24 865.32 368.70 863.31 C 360.15 861.29 356.83 850.29 367.99 852.01 C 379.15 853.73 377.76 860.60 386.75 852.75 C 395.75 844.91 391.20 842.19 383.69 837.31 C 376.19 832.42 366.47 831.92 358.22 833.22 C 349.98 834.53 345.91 840.05 341.31 846.31 C 336.70 852.56 339.35 863.78 343.75 869.25 C 348.16 874.71 356.21 879.62 361.92 882.08 C 367.64 884.54 379.62 889.95 372.69 896.69 C 365.77 903.44 356.38 893.71 351.22 890.78 C 346.07 887.85 338.85 900.89 336.00 904.00 Z"/>
</g>
<g fill="None" fill-opacity="0.0" stroke="#FEFEFE" stroke-opacity="0.94" stroke-width="0.3"><path d="
M 483.00 913.00 
C 484.05 910.40 481.32 903.23 482.00 899.00 C 482.68 894.77 482.62 888.73 482.00 884.00 C 481.38 879.27 483.24 872.84 484.00 870.00
C 482.73 860.06 489.39 846.93 501.00 852.00
C 502.07 846.20 511.07 834.29 502.00 833.00 C 492.93 831.71 485.79 834.40 482.00 842.00
C 482.81 830.98 469.68 836.09 462.00 835.00
C 462.00 861.67 462.00 888.33 462.00 915.00
C 468.00 913.43 479.59 917.98 483.00 913.00 Z"/>
</g>
<g fill="None" fill-opacity="0.0" stroke="#FEFFFE" stroke-opacity="0.93" stroke-width="0.3"><path d="
M 565.00 833.00 
C 529.81 827.28 503.35 860.81 516.08 891.92 C 528.80 923.04 568.39 924.58 589.25 902.25 C 610.10 879.91 595.45 837.95 565.00 833.00
M 559.00 852.00 
C 586.99 855.50 580.11 903.03 552.00 898.00 C 523.89 892.97 530.78 848.47 559.00 852.00 Z"/>
</g>
<g fill="None" fill-opacity="0.0" stroke="#FEFEFE" stroke-opacity="0.94" stroke-width="0.3"><path d="
M 784.00 833.00 
C 750.39 827.54 721.91 859.91 734.23 890.77 C 746.55 921.63 786.62 925.32 807.75 902.75 C 828.89 880.18 815.16 838.06 784.00 833.00
M 778.00 852.00 
C 805.54 855.39 800.43 901.59 772.00 898.00 C 743.57 894.41 749.03 848.43 778.00 852.00 Z"/>
</g>
<g fill="None" fill-opacity="0.0" stroke="#FEFEFE" stroke-opacity="0.94" stroke-width="0.3"><path d="
M 848.00 915.00 
C 847.50 915.02 848.22 904.48 848.00 902.00 C 847.78 899.52 848.20 889.86 848.00 887.00 C 847.80 884.14 847.87 873.24 849.00 874.00
C 849.35 874.23 850.00 874.00 850.00 874.00
C 849.38 865.15 852.98 853.67 863.00 852.00 C 873.02 850.33 881.74 857.53 880.00 869.00 C 878.26 880.47 882.43 890.15 880.00 903.00 C 877.57 915.85 890.09 917.15 902.00 915.00
C 902.73 898.61 900.30 879.17 903.70 863.70 C 907.09 848.22 931.16 847.58 932.00 864.00 C 932.85 880.42 933.44 898.15 933.00 915.00
C 940.00 915.00 947.00 915.00 954.00 915.00
C 950.92 893.00 960.12 862.93 949.30 843.70 C 938.48 824.46 909.34 832.31 898.00 846.00
C 889.13 828.05 862.82 829.70 850.00 842.00
C 851.92 829.69 835.17 836.92 828.00 835.00
C 828.00 861.67 828.00 888.33 828.00 915.00
C 833.98 913.28 842.25 917.29 848.00 915.00 Z"/>
</g>
<g fill="None" fill-opacity="0.0" stroke="#FFFFFF" stroke-opacity="0.71" stroke-width="0.3"><path d="
M 445.00 836.00 
C 445.00 835.50 445.00 835.00 445.00 835.00
C 442.52 834.78 435.66 836.34 434.00 834.00
C 434.69 836.77 440.87 836.37 445.00 836.00 Z"/>
</g>
<g fill="None" fill-opacity="0.0" stroke="#FFFFFF" stroke-opacity="0.47" stroke-width="0.3"><path d="
M 413.00 853.00 
C 414.33 849.70 406.44 851.40 404.00 851.00
C 403.72 845.67 404.77 839.94 403.00 835.00
C 399.42 837.51 403.42 844.72 402.01 848.99 C 400.60 853.26 410.05 854.40 413.00 853.00 Z"/>
</g>
<g fill="None" fill-opacity="0.0" stroke="#FEFEFE" stroke-opacity="0.50" stroke-width="0.3"><path d="
M 445.00 836.00 
C 445.00 841.00 445.00 846.00 445.00 851.00
C 440.83 851.35 434.81 849.73 434.00 853.00
C 437.30 854.57 447.25 852.98 447.00 849.00 C 446.75 845.02 448.77 835.22 445.00 835.00
C 445.00 835.00 445.00 835.50 445.00 836.00 Z"/>
</g>
<g fill="None" fill-opacity="0.0" stroke="#FFFFFF" stroke-opacity="0.95" stroke-width="0.3"><path d="
M 634.00 835.00 
C 627.00 835.00 620.00 835.00 613.00 835.00
C 613.00 861.67 613.00 888.33 613.00 915.00
C 620.00 915.00 627.00 915.00 634.00 915.00
C 635.93 888.80 632.83 861.83 634.00 835.00 Z"/>
</g>
<g fill="None" fill-opacity="0.0" stroke="#000000" stroke-opacity="0.00" stroke-width="0.3"><path d="
M 559.00 852.00 
C 530.78 848.47 523.89 892.97 552.00 898.00 C 580.11 903.03 586.99 855.50 559.00 852.00 Z"/>
</g>
<g fill="None" fill-opacity="0.0" stroke="#000000" stroke-opacity="0.00" stroke-width="0.3"><path d="
M 778.00 852.00 
C 749.03 848.43 743.57 894.41 772.00 898.00 C 800.43 901.59 805.54 855.39 778.00 852.00 Z"/>
</g>
<g fill="None" fill-opacity="0.0" stroke="#FFFFFF" stroke-opacity="0.45" stroke-width="0.3"><path d="
M 483.00 913.00 
C 486.64 907.70 483.09 898.43 484.00 892.00 C 484.91 885.57 483.75 876.67 484.00 870.00
C 483.24 872.84 481.38 879.27 482.00 884.00 C 482.62 888.73 482.68 894.77 482.00 899.00 C 481.32 903.23 484.05 910.40 483.00 913.00 Z"/>
</g>
<g fill="None" fill-opacity="0.0" stroke="#FFFFFF" stroke-opacity="0.82" stroke-width="0.3"><path d="
M 848.00 915.00 
C 849.14 914.55 848.87 914.06 849.00 913.00
C 850.58 900.19 847.84 886.86 849.00 874.00
C 847.87 873.24 847.80 884.14 848.00 887.00 C 848.20 889.86 847.78 899.52 848.00 902.00 C 848.22 904.48 847.50 915.02 848.00 915.00 Z"/>
</g>
<g fill="None" fill-opacity="0.0" stroke="#FFFFFF" stroke-opacity="0.09" stroke-width="0.3"><path d="
M 849.00 913.00 
C 853.06 903.06 850.00 885.28 850.00 874.00
C 850.00 874.00 849.35 874.23 849.00 874.00
C 847.84 886.86 850.58 900.19 849.00 913.00 Z"/>
</g>
<g fill="None" fill-opacity="0.0" stroke="#FEFEFE" stroke-opacity="0.54" stroke-width="0.3"><path d="
M 671.00 915.00 
C 676.28 913.22 673.88 904.32 674.00 899.00 C 674.12 893.68 674.63 885.49 674.00 880.00
C 671.94 879.67 675.38 877.39 673.00 877.00
C 670.05 881.71 673.58 891.25 672.00 896.00 C 670.42 900.75 675.11 912.04 671.00 915.00 Z"/>
</g>
<g fill="None" fill-opacity="0.0" stroke="#FEFEFE" stroke-opacity="0.96" stroke-width="0.3"><path d="
M 312.00 1058.00 
C 314.24 1061.23 324.91 1056.69 330.00 1058.00 C 335.09 1059.31 344.97 1057.38 351.00 1058.00 C 357.03 1058.62 364.48 1057.74 371.00 1058.00 C 377.52 1058.26 385.25 1057.88 392.00 1058.00 C 398.75 1058.12 406.19 1057.94 413.00 1058.00 C 419.81 1058.06 426.15 1057.98 433.00 1058.00 C 439.85 1058.02 447.10 1057.99 454.00 1058.00 C 460.90 1058.01 468.13 1057.99 475.00 1058.00 C 481.87 1058.01 488.14 1058.00 495.00 1058.00 C 501.86 1058.00 509.14 1058.00 516.00 1058.00 C 522.86 1058.00 529.12 1058.00 536.00 1058.00 C 542.88 1058.00 550.09 1058.00 557.00 1058.00 C 563.91 1058.00 571.11 1058.00 578.00 1058.00 C 584.89 1058.00 591.11 1058.00 598.00 1058.00 C 604.89 1058.00 612.09 1058.00 619.00 1058.00 C 625.91 1058.00 633.12 1058.00 640.00 1058.00 C 646.88 1058.00 653.14 1058.00 660.00 1058.00 C 666.86 1058.00 674.13 1058.00 681.00 1058.00 C 687.87 1058.00 694.12 1058.00 701.00 1058.00 C 707.88 1058.00 715.09 1058.00 722.00 1058.00 C 728.91 1058.00 736.11 1058.00 743.00 1058.00 C 749.89 1058.00 756.11 1058.00 763.00 1058.00 C 769.89 1058.00 777.09 1058.00 784.00 1058.00 C 790.91 1058.00 798.12 1058.00 805.00 1058.00 C 811.88 1058.00 818.14 1058.00 825.00 1058.00 C 831.86 1058.00 839.14 1058.00 846.00 1058.00 C 852.86 1058.00 859.13 1057.99 866.00 1058.00 C 872.87 1058.01 880.11 1057.99 887.00 1058.00 C 893.89 1058.01 901.16 1057.97 908.00 1058.00 C 914.84 1058.03 921.23 1057.94 928.00 1058.00 C 934.77 1058.06 942.33 1057.86 949.00 1058.00 C 955.67 1058.14 962.11 1057.66 968.00 1058.00
C 968.00 1013.00 968.00 968.00 968.00 923.00
C 749.33 923.00 530.67 923.00 312.00 923.00
C 312.13 931.93 311.82 941.09 312.00 950.00 C 312.18 958.91 311.66 968.17 312.00 977.00 C 312.34 985.83 311.27 995.36 312.00 1004.00 C 312.73 1012.64 310.38 1022.80 312.00 1031.00 C 313.62 1039.20 308.42 1050.77 312.00 1058.00
M 660.00 939.00 
C 673.39 943.06 664.65 967.34 650.99 961.01 C 637.34 954.68 644.43 934.28 660.00 939.00
M 609.00 1042.00 
C 604.70 1040.93 607.89 1029.56 607.00 1024.00 C 606.11 1018.44 607.50 1008.12 608.00 1003.00
C 608.00 993.03 604.32 980.64 592.33 983.33 C 580.33 986.03 578.87 994.20 578.00 1005.00 C 577.14 1015.81 578.65 1030.81 578.00 1042.00
C 572.00 1042.00 566.00 1042.00 560.00 1042.00
C 559.48 1031.66 560.70 1021.34 560.00 1011.00 C 559.30 1000.66 561.34 990.35 560.00 980.00 C 558.66 969.65 562.88 959.37 560.00 949.00 C 557.12 938.63 575.84 934.89 577.99 944.01 C 580.14 953.12 576.40 966.50 578.00 976.00
C 584.98 973.22 590.80 966.88 599.01 967.01 C 607.21 967.13 614.89 968.34 620.75 975.25 C 626.62 982.16 625.55 989.33 627.00 999.00 C 628.44 1008.68 624.84 1017.86 627.00 1029.00 C 629.16 1040.14 621.23 1045.55 609.00 1042.00
M 936.00 941.00 
C 938.28 949.84 936.37 959.75 937.00 969.00
C 948.57 965.34 949.24 975.27 948.00 984.00
C 944.33 984.00 940.67 984.00 937.00 984.00
C 937.42 992.98 936.44 999.80 937.00 1009.00 C 937.56 1018.20 935.96 1025.18 937.00 1035.00 C 938.04 1044.82 925.55 1041.86 918.00 1042.00
C 918.00 1022.67 918.00 1003.33 918.00 984.00
C 915.00 984.00 912.00 984.00 909.00 984.00
C 909.00 979.00 909.00 974.00 909.00 969.00
C 912.00 969.00 915.00 969.00 918.00 969.00
C 918.43 961.24 917.43 952.68 918.00 945.00 C 918.57 937.32 931.11 945.05 936.00 941.00
M 709.00 942.00 
C 709.00 951.00 709.00 960.00 709.00 969.00
C 712.67 969.00 716.33 969.00 720.00 969.00
C 722.52 978.23 721.23 987.67 709.00 984.00
C 709.00 1003.33 709.00 1022.67 709.00 1042.00
C 703.00 1042.00 697.00 1042.00 691.00 1042.00
C 691.00 1022.67 691.00 1003.33 691.00 984.00
C 676.95 990.10 676.93 962.92 691.00 969.00
C 691.00 960.00 691.00 951.00 691.00 942.00
C 697.00 942.00 703.00 942.00 709.00 942.00
M 392.00 976.00 
C 389.05 964.61 403.46 970.36 410.00 969.00
C 410.00 993.33 410.00 1017.67 410.00 1042.00
C 403.42 1040.62 389.11 1046.44 392.00 1035.00
C 377.79 1047.21 354.57 1047.30 341.75 1032.25 C 328.94 1017.20 328.69 994.86 341.25 979.25 C 353.81 963.63 377.36 964.22 392.00 976.00
M 444.00 1002.00 
C 444.00 1007.36 444.94 1017.08 444.00 1022.00 C 443.06 1026.92 446.81 1039.33 443.00 1042.00
C 441.01 1043.39 428.49 1042.62 426.00 1042.00
C 421.80 1040.95 424.35 1025.11 424.00 1019.00 C 423.65 1012.89 423.68 998.14 424.00 992.00 C 424.32 985.86 421.85 970.03 426.00 969.00
C 432.07 967.49 444.40 967.63 441.00 977.00
C 445.67 972.02 453.81 964.87 461.00 967.00 C 468.19 969.13 462.93 984.48 455.00 983.00 C 447.07 981.52 442.14 995.09 444.00 1002.00
M 543.00 984.00 
C 535.75 987.68 529.72 993.10 522.92 987.08 C 516.12 981.07 503.69 983.33 496.31 986.31 C 488.92 989.28 485.27 998.70 485.00 1006.00 C 484.73 1013.30 489.58 1023.69 497.23 1025.77 C 504.87 1027.85 515.64 1030.90 522.69 1024.69 C 529.75 1018.49 534.62 1023.41 542.00 1028.00
C 521.98 1058.84 465.97 1043.57 467.00 1005.00 C 468.03 966.43 522.89 953.27 543.00 984.00
M 809.00 1010.00 
C 810.32 1010.38 809.45 1010.62 809.00 1011.00
C 802.76 1016.22 787.36 1010.23 779.00 1012.00 C 770.64 1013.77 756.90 1011.51 749.00 1011.00
C 745.20 1014.80 754.38 1026.06 760.08 1026.92 C 765.77 1027.78 777.43 1031.20 783.23 1025.23 C 789.02 1019.26 796.58 1025.63 803.00 1028.00
C 777.78 1065.09 716.50 1033.58 732.78 991.78 C 749.06 949.97 814.01 965.65 809.00 1010.00
M 896.00 984.00 
C 887.86 989.20 882.35 992.18 874.77 986.23 C 867.19 980.28 855.49 983.73 847.77 987.77 C 840.05 991.81 836.51 1002.62 838.78 1011.22 C 841.04 1019.82 846.97 1025.92 856.00 1027.00 C 865.03 1028.08 875.05 1028.21 881.00 1020.00
C 886.04 1021.63 890.09 1026.15 895.00 1028.00
C 875.03 1058.88 819.02 1043.51 820.00 1005.00 C 820.98 966.49 876.00 953.14 896.00 984.00
M 664.00 969.00 
C 664.00 993.33 664.00 1017.67 664.00 1042.00
C 658.00 1042.00 652.00 1042.00 646.00 1042.00
C 646.00 1017.66 646.00 993.34 646.00 969.00
C 652.00 969.00 658.00 969.00 664.00 969.00 Z"/>
</g>
<g fill="None" fill-opacity="0.0" stroke="#000000" stroke-opacity="0.00" stroke-width="0.3"><path d="
M 660.00 939.00 
C 644.43 934.28 637.34 954.68 650.99 961.01 C 664.65 967.34 673.39 943.06 660.00 939.00 Z"/>
</g>
<g fill="None" fill-opacity="0.0" stroke="#000000" stroke-opacity="0.00" stroke-width="0.3"><path d="
M 608.00 1003.00 
C 608.00 1003.50 608.00 1004.00 608.00 1004.00
C 611.31 1008.47 608.08 1016.18 609.00 1022.00 C 609.92 1027.82 608.31 1035.97 609.00 1042.00
C 621.23 1045.55 629.16 1040.14 627.00 1029.00 C 624.84 1017.86 628.44 1008.68 627.00 999.00 C 625.55 989.33 626.62 982.16 620.75 975.25 C 614.89 968.34 607.21 967.13 599.01 967.01 C 590.80 966.88 584.98 973.22 578.00 976.00
C 576.40 966.50 580.14 953.12 577.99 944.01 C 575.84 934.89 557.12 938.63 560.00 949.00 C 562.88 959.37 558.66 969.65 560.00 980.00 C 561.34 990.35 559.30 1000.66 560.00 1011.00 C 560.70 1021.34 559.48 1031.66 560.00 1042.00
C 566.00 1042.00 572.00 1042.00 578.00 1042.00
C 578.65 1030.81 577.14 1015.81 578.00 1005.00 C 578.87 994.20 580.33 986.03 592.33 983.33 C 604.32 980.64 608.00 993.03 608.00 1003.00 Z"/>
</g>
<g fill="None" fill-opacity="0.0" stroke="#000000" stroke-opacity="0.00" stroke-width="0.3"><path d="
M 936.00 941.00 
C 931.11 945.05 918.57 937.32 918.00 945.00 C 917.43 952.68 918.43 961.24 918.00 969.00
C 915.00 969.00 912.00 969.00 909.00 969.00
C 909.00 974.00 909.00 979.00 909.00 984.00
C 912.00 984.00 915.00 984.00 918.00 984.00
C 918.00 1003.33 918.00 1022.67 918.00 1042.00
C 925.55 1041.86 938.04 1044.82 937.00 1035.00 C 935.96 1025.18 937.56 1018.20 937.00 1009.00 C 936.44 999.80 937.42 992.98 937.00 984.00
C 940.67 984.00 944.33 984.00 948.00 984.00
C 949.24 975.27 948.57 965.34 937.00 969.00
C 936.37 959.75 938.28 949.84 936.00 941.00 Z"/>
</g>
<g fill="None" fill-opacity="0.0" stroke="#000000" stroke-opacity="0.00" stroke-width="0.3"><path d="
M 709.00 942.00 
C 703.00 942.00 697.00 942.00 691.00 942.00
C 691.00 951.00 691.00 960.00 691.00 969.00
C 676.93 962.92 676.95 990.10 691.00 984.00
C 691.00 1003.33 691.00 1022.67 691.00 1042.00
C 697.00 1042.00 703.00 1042.00 709.00 1042.00
C 709.00 1022.67 709.00 1003.33 709.00 984.00
C 721.23 987.67 722.52 978.23 720.00 969.00
C 716.33 969.00 712.67 969.00 709.00 969.00
C 709.00 960.00 709.00 951.00 709.00 942.00 Z"/>
</g>
<g fill="None" fill-opacity="0.0" stroke="#000000" stroke-opacity="0.00" stroke-width="0.3"><path d="
M 392.00 976.00 
C 377.36 964.22 353.81 963.63 341.25 979.25 C 328.69 994.86 328.94 1017.20 341.75 1032.25 C 354.57 1047.30 377.79 1047.21 392.00 1035.00
C 389.11 1046.44 403.42 1040.62 410.00 1042.00
C 410.00 1017.67 410.00 993.33 410.00 969.00
C 403.46 970.36 389.05 964.61 392.00 976.00
M 372.00 983.00 
C 399.65 983.24 399.01 1028.85 371.00 1028.00 C 342.99 1027.14 344.13 982.76 372.00 983.00 Z"/>
</g>
<g fill="None" fill-opacity="0.0" stroke="#000000" stroke-opacity="0.00" stroke-width="0.3"><path d="
M 426.00 969.00 
C 428.87 975.05 425.27 986.13 426.00 993.00 C 426.73 999.87 426.91 1010.07 426.00 1017.00 C 425.09 1023.93 428.95 1035.79 426.00 1042.00
C 428.49 1042.62 441.01 1043.39 443.00 1042.00
C 442.82 1028.75 442.79 1014.45 444.00 1002.00
C 442.14 995.09 447.07 981.52 455.00 983.00 C 462.93 984.48 468.19 969.13 461.00 967.00 C 453.81 964.87 445.67 972.02 441.00 977.00
C 444.40 967.63 432.07 967.49 426.00 969.00 Z"/>
</g>
<g fill="None" fill-opacity="0.0" stroke="#000000" stroke-opacity="0.00" stroke-width="0.3"><path d="
M 543.00 984.00 
C 522.89 953.27 468.03 966.43 467.00 1005.00 C 465.97 1043.57 521.98 1058.84 542.00 1028.00
C 534.62 1023.41 529.75 1018.49 522.69 1024.69 C 515.64 1030.90 504.87 1027.85 497.23 1025.77 C 489.58 1023.69 484.73 1013.30 485.00 1006.00 C 485.27 998.70 488.92 989.28 496.31 986.31 C 503.69 983.33 516.12 981.07 522.92 987.08 C 529.72 993.10 535.75 987.68 543.00 984.00 Z"/>
</g>
<g fill="None" fill-opacity="0.0" stroke="#000000" stroke-opacity="0.00" stroke-width="0.3"><path d="
M 749.00 1011.00 
C 752.58 1007.42 762.52 1010.62 768.00 1010.00 C 773.48 1009.38 782.04 1009.54 788.00 1010.00 C 793.96 1010.46 803.17 1008.31 809.00 1010.00
C 814.01 965.65 749.06 949.97 732.78 991.78 C 716.50 1033.58 777.78 1065.09 803.00 1028.00
C 796.58 1025.63 789.02 1019.26 783.23 1025.23 C 777.43 1031.20 765.77 1027.78 760.08 1026.92 C 754.38 1026.06 745.20 1014.80 749.00 1011.00
M 776.00 982.00 
C 781.25 983.09 784.90 985.85 788.75 991.25 C 792.60 996.64 780.94 998.51 775.00 997.00 C 769.06 995.49 758.03 998.63 752.00 997.00 C 745.97 995.37 752.41 988.29 756.70 985.70 C 760.98 983.10 770.15 980.79 776.00 982.00 Z"/>
</g>
<g fill="None" fill-opacity="0.0" stroke="#000000" stroke-opacity="0.00" stroke-width="0.3"><path d="
M 896.00 984.00 
C 876.00 953.14 820.98 966.49 820.00 1005.00 C 819.02 1043.51 875.03 1058.88 895.00 1028.00
C 890.09 1026.15 886.04 1021.63 881.00 1020.00
C 875.05 1028.21 865.03 1028.08 856.00 1027.00 C 846.97 1025.92 841.04 1019.82 838.78 1011.22 C 836.51 1002.62 840.05 991.81 847.77 987.77 C 855.49 983.73 867.19 980.28 874.77 986.23 C 882.35 992.18 887.86 989.20 896.00 984.00 Z"/>
</g>
<g fill="None" fill-opacity="0.0" stroke="#FEFEFE" stroke-opacity="0.47" stroke-width="0.3"><path d="
M 426.00 1042.00 
C 428.95 1035.79 425.09 1023.93 426.00 1017.00 C 426.91 1010.07 426.73 999.87 426.00 993.00 C 425.27 986.13 428.87 975.05 426.00 969.00
C 421.85 970.03 424.32 985.86 424.00 992.00 C 423.68 998.14 423.65 1012.89 424.00 1019.00 C 424.35 1025.11 421.80 1040.95 426.00 1042.00 Z"/>
</g>
<g fill="None" fill-opacity="0.0" stroke="#000000" stroke-opacity="0.00" stroke-width="0.3"><path d="
M 664.00 969.00 
C 658.00 969.00 652.00 969.00 646.00 969.00
C 646.00 993.34 646.00 1017.66 646.00 1042.00
C 652.00 1042.00 658.00 1042.00 664.00 1042.00
C 664.00 1017.67 664.00 993.33 664.00 969.00 Z"/>
</g>
<g fill="None" fill-opacity="0.0" stroke="#FEFFFE" stroke-opacity="0.84" stroke-width="0.3"><path d="
M 776.00 982.00 
C 770.15 980.79 760.98 983.10 756.70 985.70 C 752.41 988.29 745.97 995.37 752.00 997.00 C 758.03 998.63 769.06 995.49 775.00 997.00 C 780.94 998.51 792.60 996.64 788.75 991.25 C 784.90 985.85 781.25 983.09 776.00 982.00 Z"/>
</g>
<g fill="None" fill-opacity="0.0" stroke="#FEFFFE" stroke-opacity="0.94" stroke-width="0.3"><path d="
M 372.00 983.00 
C 344.13 982.76 342.99 1027.14 371.00 1028.00 C 399.01 1028.85 399.65 983.24 372.00 983.00 Z"/>
</g>
<g fill="None" fill-opacity="0.0" stroke="#FFFFFF" stroke-opacity="0.10" stroke-width="0.3"><path d="
M 443.00 1042.00 
C 446.81 1039.33 443.06 1026.92 444.00 1022.00 C 444.94 1017.08 444.00 1007.36 444.00 1002.00
C 442.79 1014.45 442.82 1028.75 443.00 1042.00 Z"/>
</g>
<g fill="None" fill-opacity="0.0" stroke="#FEFEFE" stroke-opacity="0.85" stroke-width="0.3"><path d="
M 609.00 1042.00 
C 607.18 1030.24 607.99 1016.51 608.00 1004.00
C 608.00 1004.00 608.00 1003.50 608.00 1003.00
C 607.50 1008.12 606.11 1018.44 607.00 1024.00 C 607.89 1029.56 604.70 1040.93 609.00 1042.00 Z"/>
</g>
<g fill="None" fill-opacity="0.0" stroke="#FFFFFF" stroke-opacity="0.06" stroke-width="0.3"><path d="
M 609.00 1042.00 
C 608.31 1035.97 609.92 1027.82 609.00 1022.00 C 608.08 1016.18 611.31 1008.47 608.00 1004.00
C 607.99 1016.51 607.18 1030.24 609.00 1042.00 Z"/>
</g>
<g fill="None" fill-opacity="0.0" stroke="#FFFFFF" stroke-opacity="0.07" stroke-width="0.3"><path d="
M 749.00 1011.00 
C 758.70 1009.95 769.40 1012.40 779.00 1011.00 C 788.60 1009.60 799.78 1013.67 809.00 1011.00
C 809.45 1010.62 810.32 1010.38 809.00 1010.00
C 803.17 1008.31 793.96 1010.46 788.00 1010.00 C 782.04 1009.54 773.48 1009.38 768.00 1010.00 C 762.52 1010.62 752.58 1007.42 749.00 1011.00 Z"/>
</g>
<g fill="None" fill-opacity="0.0" stroke="#FFFFFF" stroke-opacity="0.80" stroke-width="0.3"><path d="
M 809.00 1011.00 
C 799.78 1013.67 788.60 1009.60 779.00 1011.00 C 769.40 1012.40 758.70 1009.95 749.00 1011.00
C 756.90 1011.51 770.64 1013.77 779.00 1012.00 C 787.36 1010.23 802.76 1016.22 809.00 1011.00 Z"/>
</g>
<g fill="None" fill-opacity="0.0" stroke="#FEFFFE" stroke-opacity="0.52" stroke-width="0.3"><path d="
M 312.00 1058.00 
C 314.92 1063.90 330.32 1058.61 337.00 1060.00 C 343.68 1061.39 355.11 1059.39 363.00 1060.00 C 370.89 1060.61 381.63 1059.72 390.00 1060.00 C 398.37 1060.28 407.42 1059.87 416.00 1060.00 C 424.58 1060.13 433.27 1059.94 442.00 1060.00 C 450.73 1060.06 460.22 1059.97 469.00 1060.00 C 477.78 1060.03 486.19 1059.99 495.00 1060.00 C 503.81 1060.01 513.20 1059.99 522.00 1060.00 C 530.80 1060.01 539.23 1060.00 548.00 1060.00 C 556.77 1060.00 565.19 1060.00 574.00 1060.00 C 582.81 1060.00 592.18 1060.00 601.00 1060.00 C 609.82 1060.00 618.18 1060.00 627.00 1060.00 C 635.82 1060.00 645.19 1060.00 654.00 1060.00 C 662.81 1060.00 671.23 1060.00 680.00 1060.00 C 688.77 1060.00 697.19 1060.00 706.00 1060.00 C 714.81 1060.00 724.18 1060.00 733.00 1060.00 C 741.82 1060.00 750.19 1060.01 759.00 1060.00 C 767.81 1059.99 777.21 1060.01 786.00 1060.00 C 794.79 1059.99 803.26 1060.02 812.00 1060.00 C 820.74 1059.98 829.28 1060.05 838.00 1060.00 C 846.72 1059.95 856.36 1060.11 865.00 1060.00 C 873.64 1059.89 882.60 1060.26 891.00 1060.00 C 899.40 1059.74 910.09 1060.56 918.00 1060.00 C 925.91 1059.44 937.30 1061.29 944.00 1060.00 C 950.69 1058.71 965.13 1063.81 968.00 1058.00
C 962.11 1057.66 955.67 1058.14 949.00 1058.00 C 942.33 1057.86 934.77 1058.06 928.00 1058.00 C 921.23 1057.94 914.84 1058.03 908.00 1058.00 C 901.16 1057.97 893.89 1058.01 887.00 1058.00 C 880.11 1057.99 872.87 1058.01 866.00 1058.00 C 859.13 1057.99 852.86 1058.00 846.00 1058.00 C 839.14 1058.00 831.86 1058.00 825.00 1058.00 C 818.14 1058.00 811.88 1058.00 805.00 1058.00 C 798.12 1058.00 790.91 1058.00 784.00 1058.00 C 777.09 1058.00 769.89 1058.00 763.00 1058.00 C 756.11 1058.00 749.89 1058.00 743.00 1058.00 C 736.11 1058.00 728.91 1058.00 722.00 1058.00 C 715.09 1058.00 707.88 1058.00 701.00 1058.00 C 694.12 1058.00 687.87 1058.00 681.00 1058.00 C 674.13 1058.00 666.86 1058.00 660.00 1058.00 C 653.14 1058.00 646.88 1058.00 640.00 1058.00 C 633.12 1058.00 625.91 1058.00 619.00 1058.00 C 612.09 1058.00 604.89 1058.00 598.00 1058.00 C 591.11 1058.00 584.89 1058.00 578.00 1058.00 C 571.11 1058.00 563.91 1058.00 557.00 1058.00 C 550.09 1058.00 542.88 1058.00 536.00 1058.00 C 529.12 1058.00 522.86 1058.00 516.00 1058.00 C 509.14 1058.00 501.86 1058.00 495.00 1058.00 C 488.14 1058.00 481.87 1058.01 475.00 1058.00 C 468.13 1057.99 460.90 1058.01 454.00 1058.00 C 447.10 1057.99 439.85 1058.02 433.00 1058.00 C 426.15 1057.98 419.81 1058.06 413.00 1058.00 C 406.19 1057.94 398.75 1058.12 392.00 1058.00 C 385.25 1057.88 377.52 1058.26 371.00 1058.00 C 364.48 1057.74 357.03 1058.62 351.00 1058.00 C 344.97 1057.38 335.09 1059.31 330.00 1058.00 C 324.91 1056.69 314.24 1061.23 312.00 1058.00 Z"/>
</g>
<g fill="#000000" fill-opacity="0.00" stroke="None">
<path d="
M 0.00 1280.00 
L 1280.00 1280.00
L 1280.00 0.00
L 0.00 0.00
L 0.00 1280.00
M 711.00 220.00 
C 721.88 220.19 733.08 225.22 741.75 232.25 C 750.42 239.28 754.57 248.95 759.92 258.08 C 765.28 267.20 771.12 276.41 776.30 285.70 C 781.49 294.98 787.45 303.97 792.77 313.23 C 798.09 322.49 803.52 331.87 808.92 341.08 C 814.31 350.30 820.12 359.40 825.30 368.70 C 830.49 377.99 836.33 387.14 841.75 396.25 C 847.18 405.35 852.29 415.28 857.77 424.23 C 863.25 433.18 869.27 443.02 873.92 452.08 C 878.57 461.14 886.72 469.97 889.92 479.08 C 893.13 488.19 907.31 498.08 902.69 507.69 C 898.08 517.31 892.07 525.73 886.23 535.23 C 880.39 544.73 877.61 553.67 870.08 563.08 C 862.54 572.48 863.69 582.40 871.30 591.70 C 878.92 601.00 881.13 610.05 887.77 619.23 C 894.41 628.41 897.60 638.02 903.77 647.23 C 909.94 656.44 914.27 665.41 920.25 674.75 C 926.24 684.09 930.07 693.22 936.31 702.70 C 942.54 712.17 946.79 724.04 946.00 736.00 C 945.21 747.96 942.84 759.39 934.08 768.08 C 925.33 776.77 917.77 781.34 905.00 783.00 C 892.23 784.65 875.92 783.92 862.00 784.00 C 848.08 784.08 832.30 783.98 818.00 784.00 C 803.70 784.02 788.42 784.04 774.00 784.00 C 759.58 783.96 744.38 784.12 730.00 784.00 C 715.62 783.88 700.16 784.29 686.00 784.00 C 671.84 783.71 655.60 784.65 642.00 784.00 C 628.40 783.35 611.37 785.48 599.00 784.00 C 586.63 782.52 587.70 766.29 580.23 758.77 C 572.76 751.25 571.18 738.96 563.75 731.25 C 556.31 723.55 557.08 707.33 544.00 707.00 C 530.92 706.68 513.79 707.09 500.00 707.00 C 486.21 706.91 469.92 706.91 456.00 707.00 C 442.08 707.09 425.55 706.68 412.00 707.00 C 398.45 707.32 383.75 707.86 372.77 702.23 C 361.80 696.60 356.07 690.94 350.08 680.92 C 344.09 670.90 342.35 656.37 345.33 645.33 C 348.31 634.29 355.13 626.01 360.30 616.30 C 365.47 606.59 371.54 598.28 376.77 588.77 C 382.00 579.26 387.63 570.30 392.92 560.92 C 398.20 551.53 404.00 542.62 409.30 533.30 C 414.61 523.99 420.03 514.82 425.75 505.75 C 431.48 496.69 435.80 486.68 441.77 477.77 C 447.75 468.86 452.07 458.82 457.92 449.92 C 463.78 441.03 468.46 431.06 474.30 422.30 C 480.14 413.54 483.77 403.48 490.31 395.30 C 496.84 387.13 497.97 372.53 509.00 370.00 C 520.04 367.47 541.53 372.39 553.00 370.00 C 564.47 367.61 586.48 375.05 594.30 367.30 C 602.12 359.55 604.26 348.36 610.77 339.77 C 617.28 331.18 620.95 320.85 626.92 311.92 C 632.89 302.99 637.73 293.46 643.25 284.25 C 648.78 275.05 654.08 265.97 659.75 256.75 C 665.43 247.54 669.03 238.00 678.25 231.25 C 687.46 224.50 699.14 219.79 711.00 220.00
M 628.00 802.00 
C 644.24 806.02 636.49 834.12 619.93 828.07 C 603.37 822.03 610.32 797.62 628.00 802.00
M 675.00 866.00 
C 680.98 855.76 688.15 854.33 694.75 843.75 C 701.36 833.18 716.79 833.97 729.00 835.00
C 718.84 847.78 707.12 860.57 695.00 872.00
C 705.59 887.37 722.76 899.44 733.00 915.00
C 718.97 917.75 704.80 914.83 697.25 903.75 C 689.70 892.67 681.49 890.04 674.00 880.00
C 674.63 885.49 674.12 893.68 674.00 899.00 C 673.88 904.32 676.28 913.22 671.00 915.00
C 665.32 916.92 657.85 913.56 652.00 915.00
C 651.63 903.85 652.50 894.31 652.00 883.00 C 651.50 871.69 652.92 861.75 652.00 850.00 C 651.08 838.25 653.97 829.70 652.00 817.00 C 650.03 804.30 659.18 801.27 672.00 804.00
C 676.81 806.38 673.49 817.42 674.00 823.00 C 674.51 828.58 674.36 838.74 674.00 845.00 C 673.64 851.26 675.05 860.44 675.00 866.00
M 434.00 834.00 
C 435.66 836.34 442.52 834.78 445.00 835.00
C 448.77 835.22 446.75 845.02 447.00 849.00 C 447.25 852.98 437.30 854.57 434.00 853.00
C 431.58 862.73 435.26 873.98 434.00 884.00 C 432.74 894.02 434.95 904.90 434.00 915.00
C 427.00 915.00 420.00 915.00 413.00 915.00
C 413.00 894.33 413.00 873.67 413.00 853.00
C 410.05 854.40 400.60 853.26 402.01 848.99 C 403.42 844.72 399.42 837.51 403.00 835.00
C 406.71 832.41 412.81 840.37 412.97 831.97 C 413.13 823.57 412.91 813.55 413.00 805.00
C 420.00 805.00 427.00 805.00 434.00 805.00
C 434.00 814.67 434.00 824.34 434.00 834.00
M 336.00 904.00 
C 338.85 900.89 346.07 887.85 351.22 890.78 C 356.38 893.71 365.77 903.44 372.69 896.69 C 379.62 889.95 367.64 884.54 361.92 882.08 C 356.21 879.62 348.16 874.71 343.75 869.25 C 339.35 863.78 336.70 852.56 341.31 846.31 C 345.91 840.05 349.98 834.53 358.22 833.22 C 366.47 831.92 376.19 832.42 383.69 837.31 C 391.20 842.19 395.75 844.91 386.75 852.75 C 377.76 860.60 379.15 853.73 367.99 852.01 C 356.83 850.29 360.15 861.29 368.70 863.31 C 377.24 865.32 380.99 869.84 387.70 874.30 C 394.41 878.77 396.28 890.22 394.67 897.67 C 393.06 905.12 387.86 910.45 380.92 913.92 C 373.99 917.40 362.74 917.80 354.98 916.02 C 347.21 914.25 341.74 909.47 336.00 904.00
M 484.00 870.00 
C 483.75 876.67 484.91 885.57 484.00 892.00 C 483.09 898.43 486.64 907.70 483.00 913.00
C 479.59 917.98 468.00 913.43 462.00 915.00
C 462.00 888.33 462.00 861.67 462.00 835.00
C 469.68 836.09 482.81 830.98 482.00 842.00
C 485.79 834.40 492.93 831.71 502.00 833.00 C 511.07 834.29 502.07 846.20 501.00 852.00
C 489.39 846.93 482.73 860.06 484.00 870.00
M 565.00 833.00 
C 595.45 837.95 610.10 879.91 589.25 902.25 C 568.39 924.58 528.80 923.04 516.08 891.92 C 503.35 860.81 529.81 827.28 565.00 833.00
M 784.00 833.00 
C 815.16 838.06 828.89 880.18 807.75 902.75 C 786.62 925.32 746.55 921.63 734.23 890.77 C 721.91 859.91 750.39 827.54 784.00 833.00
M 850.00 874.00 
C 850.00 885.28 853.06 903.06 849.00 913.00
C 848.87 914.06 849.14 914.55 848.00 915.00
C 842.25 917.29 833.98 913.28 828.00 915.00
C 828.00 888.33 828.00 861.67 828.00 835.00
C 835.17 836.92 851.92 829.69 850.00 842.00
C 862.82 829.70 889.13 828.05 898.00 846.00
C 909.34 832.31 938.48 824.46 949.30 843.70 C 960.12 862.93 950.92 893.00 954.00 915.00
C 947.00 915.00 940.00 915.00 933.00 915.00
C 933.44 898.15 932.85 880.42 932.00 864.00 C 931.16 847.58 907.09 848.22 903.70 863.70 C 900.30 879.17 902.73 898.61 902.00 915.00
C 890.09 917.15 877.57 915.85 880.00 903.00 C 882.43 890.15 878.26 880.47 880.00 869.00 C 881.74 857.53 873.02 850.33 863.00 852.00 C 852.98 853.67 849.38 865.15 850.00 874.00
M 634.00 835.00 
C 632.83 861.83 635.93 888.80 634.00 915.00
C 627.00 915.00 620.00 915.00 613.00 915.00
C 613.00 888.33 613.00 861.67 613.00 835.00
C 620.00 835.00 627.00 835.00 634.00 835.00
M 968.00 1058.00 
C 965.13 1063.81 950.69 1058.71 944.00 1060.00 C 937.30 1061.29 925.91 1059.44 918.00 1060.00 C 910.09 1060.56 899.40 1059.74 891.00 1060.00 C 882.60 1060.26 873.64 1059.89 865.00 1060.00 C 856.36 1060.11 846.72 1059.95 838.00 1060.00 C 829.28 1060.05 820.74 1059.98 812.00 1060.00 C 803.26 1060.02 794.79 1059.99 786.00 1060.00 C 777.21 1060.01 767.81 1059.99 759.00 1060.00 C 750.19 1060.01 741.82 1060.00 733.00 1060.00 C 724.18 1060.00 714.81 1060.00 706.00 1060.00 C 697.19 1060.00 688.77 1060.00 680.00 1060.00 C 671.23 1060.00 662.81 1060.00 654.00 1060.00 C 645.19 1060.00 635.82 1060.00 627.00 1060.00 C 618.18 1060.00 609.82 1060.00 601.00 1060.00 C 592.18 1060.00 582.81 1060.00 574.00 1060.00 C 565.19 1060.00 556.77 1060.00 548.00 1060.00 C 539.23 1060.00 530.80 1060.01 522.00 1060.00 C 513.20 1059.99 503.81 1060.01 495.00 1060.00 C 486.19 1059.99 477.78 1060.03 469.00 1060.00 C 460.22 1059.97 450.73 1060.06 442.00 1060.00 C 433.27 1059.94 424.58 1060.13 416.00 1060.00 C 407.42 1059.87 398.37 1060.28 390.00 1060.00 C 381.63 1059.72 370.89 1060.61 363.00 1060.00 C 355.11 1059.39 343.68 1061.39 337.00 1060.00 C 330.32 1058.61 314.92 1063.90 312.00 1058.00
C 308.42 1050.77 313.62 1039.20 312.00 1031.00 C 310.38 1022.80 312.73 1012.64 312.00 1004.00 C 311.27 995.36 312.34 985.83 312.00 977.00 C 311.66 968.17 312.18 958.91 312.00 950.00 C 311.82 941.09 312.13 931.93 312.00 923.00
C 530.67 923.00 749.33 923.00 968.00 923.00
C 968.00 968.00 968.00 1013.00 968.00 1058.00 Z"/>
</g>
<g fill="#FEFFFE" fill-opacity="0.97" stroke="None">
<path d="
M 711.00 220.00 
C 699.14 219.79 687.46 224.50 678.25 231.25 C 669.03 238.00 665.43 247.54 659.75 256.75 C 654.08 265.97 648.78 275.05 643.25 284.25 C 637.73 293.46 632.89 302.99 626.92 311.92 C 620.95 320.85 617.28 331.18 610.77 339.77 C 604.26 348.36 602.12 359.55 594.30 367.30 C 586.48 375.05 564.47 367.61 553.00 370.00 C 541.53 372.39 520.04 367.47 509.00 370.00 C 497.97 372.53 496.84 387.13 490.31 395.30 C 483.77 403.48 480.14 413.54 474.30 422.30 C 468.46 431.06 463.78 441.03 457.92 449.92 C 452.07 458.82 447.75 468.86 441.77 477.77 C 435.80 486.68 431.48 496.69 425.75 505.75 C 420.03 514.82 414.61 523.99 409.30 533.30 C 404.00 542.62 398.20 551.53 392.92 560.92 C 387.63 570.30 382.00 579.26 376.77 588.77 C 371.54 598.28 365.47 606.59 360.30 616.30 C 355.13 626.01 348.31 634.29 345.33 645.33 C 342.35 656.37 344.09 670.90 350.08 680.92 C 356.07 690.94 361.80 696.60 372.77 702.23 C 383.75 707.86 398.45 707.32 412.00 707.00 C 425.55 706.68 442.08 707.09 456.00 707.00 C 469.92 706.91 486.21 706.91 500.00 707.00 C 513.79 707.09 530.92 706.68 544.00 707.00 C 557.08 707.33 556.31 723.55 563.75 731.25 C 571.18 738.96 572.76 751.25 580.23 758.77 C 587.70 766.29 586.63 782.52 599.00 784.00 C 611.37 785.48 628.40 783.35 642.00 784.00 C 655.60 784.65 671.84 783.71 686.00 784.00 C 700.16 784.29 715.62 783.88 730.00 784.00 C 744.38 784.12 759.58 783.96 774.00 784.00 C 788.42 784.04 803.70 784.02 818.00 784.00 C 832.30 783.98 848.08 784.08 862.00 784.00 C 875.92 783.92 892.23 784.65 905.00 783.00 C 917.77 781.34 925.33 776.77 934.08 768.08 C 942.84 759.39 945.21 747.96 946.00 736.00 C 946.79 724.04 942.54 712.17 936.31 702.70 C 930.07 693.22 926.24 684.09 920.25 674.75 C 914.27 665.41 909.94 656.44 903.77 647.23 C 897.60 638.02 894.41 628.41 887.77 619.23 C 881.13 610.05 878.92 601.00 871.30 591.70 C 863.69 582.40 862.54 572.48 870.08 563.08 C 877.61 553.67 880.39 544.73 886.23 535.23 C 892.07 525.73 898.08 517.31 902.69 507.69 C 907.31 498.08 893.13 488.19 889.92 479.08 C 886.72 469.97 878.57 461.14 873.92 452.08 C 869.27 443.02 863.25 433.18 857.77 424.23 C 852.29 415.28 847.18 405.35 841.75 396.25 C 836.33 387.14 830.49 377.99 825.30 368.70 C 820.12 359.40 814.31 350.30 808.92 341.08 C 803.52 331.87 798.09 322.49 792.77 313.23 C 787.45 303.97 781.49 294.98 776.30 285.70 C 771.12 276.41 765.28 267.20 759.92 258.08 C 754.57 248.95 750.42 239.28 741.75 232.25 C 733.08 225.22 721.88 220.19 711.00 220.00
M 749.00 607.00 
C 746.49 602.84 735.18 607.14 730.00 606.00 C 724.82 604.86 715.16 606.52 709.00 606.00 C 702.84 605.48 694.59 606.24 688.00 606.00 C 681.41 605.76 673.74 606.11 667.00 606.00 C 660.26 605.89 653.83 606.05 647.00 606.00 C 640.17 605.95 632.91 606.02 626.00 606.00 C 619.09 605.98 611.92 606.02 605.00 606.00 C 598.08 605.98 590.87 606.02 584.00 606.00 C 577.13 605.98 570.85 606.04 564.00 606.00 C 557.15 605.96 549.82 606.09 543.00 606.00 C 536.18 605.91 528.68 606.19 522.00 606.00 C 515.32 605.81 507.32 606.42 501.00 606.00 C 494.68 605.58 484.89 608.08 487.00 603.00
C 498.00 576.53 519.30 554.57 530.00 528.00
C 536.14 533.06 539.32 540.79 543.77 548.23 C 548.22 555.67 551.95 561.55 556.30 569.70 C 560.66 577.84 564.46 581.66 568.92 591.08 C 573.38 600.50 578.83 590.18 582.75 582.75 C 586.67 575.33 590.78 568.14 594.92 560.92 C 599.07 553.71 603.74 547.02 607.77 539.77 C 611.80 532.52 616.12 525.48 620.30 518.30 C 624.48 511.13 628.70 504.06 632.92 496.92 C 637.14 489.78 641.16 482.48 645.31 475.31 C 649.45 468.13 654.01 461.21 657.92 453.92 C 661.84 446.64 666.79 440.02 670.77 432.77 C 674.75 425.52 679.04 418.41 683.25 411.25 C 687.47 404.10 691.42 396.92 695.77 389.77 C 700.12 382.63 704.24 374.71 709.00 368.00
C 725.16 393.45 741.52 420.07 755.00 447.00
C 727.00 447.00 699.00 447.00 671.00 447.00
C 714.02 525.38 761.35 602.18 806.00 680.00
C 773.59 681.65 739.39 681.67 707.00 680.00
C 720.64 655.45 735.99 631.73 749.00 607.00
M 576.00 397.00 
C 531.45 475.42 483.14 552.16 440.00 631.00
C 528.33 631.00 616.67 631.00 705.00 631.00
C 699.48 641.90 694.14 649.19 688.08 660.08 C 682.02 670.97 678.19 683.15 663.00 681.00 C 647.81 678.85 632.23 681.99 617.00 681.00 C 601.77 680.01 586.19 681.50 571.00 681.00 C 555.81 680.50 540.05 681.34 525.00 681.00 C 509.95 680.66 493.72 681.41 479.00 681.00 C 464.28 680.59 446.98 681.75 433.00 681.00 C 419.02 680.25 400.28 683.18 388.33 679.67 C 376.37 676.17 369.64 662.08 371.33 651.33 C 373.02 640.58 383.40 631.70 387.77 621.77 C 392.14 611.84 399.56 602.49 404.77 592.77 C 409.98 583.05 416.25 573.43 421.77 563.77 C 427.29 554.11 433.06 544.39 438.77 534.77 C 444.48 525.15 450.01 515.41 455.77 505.77 C 461.53 496.13 466.85 486.39 472.77 476.77 C 478.69 467.15 483.64 457.40 489.77 447.77 C 495.90 438.14 500.26 428.47 506.77 418.77 C 513.28 409.08 515.41 394.58 530.00 396.00 C 544.59 397.42 561.46 394.85 576.00 397.00
M 581.00 707.00 
C 670.92 706.33 761.50 708.33 851.00 706.00
C 807.04 627.96 760.03 551.01 716.00 473.00
C 730.53 473.15 749.97 472.80 764.00 473.00 C 778.04 473.20 779.64 489.76 786.77 499.23 C 793.90 508.70 798.43 520.20 804.92 530.08 C 811.40 539.96 816.49 550.19 822.77 560.23 C 829.05 570.27 834.42 581.13 840.77 591.23 C 847.12 601.32 852.59 611.94 858.92 622.08 C 865.24 632.23 870.77 642.84 876.92 653.08 C 883.08 663.31 888.60 672.87 894.77 683.23 C 900.95 693.59 906.53 703.53 912.92 714.08 C 919.31 724.63 923.23 740.15 911.75 749.75 C 900.28 759.35 887.38 758.11 872.00 758.00 C 856.62 757.89 838.89 757.96 823.00 758.00 C 807.11 758.04 790.11 757.79 774.00 758.00 C 757.89 758.21 741.17 757.48 725.00 758.00 C 708.83 758.52 693.23 756.80 677.00 758.00 C 660.77 759.20 644.33 755.38 628.00 758.00 C 611.67 760.62 604.18 751.51 598.70 738.31 C 593.21 725.10 585.13 720.19 581.00 707.00 Z"/>
</g>
<g fill="#000000" fill-opacity="0.00" stroke="None">
<path d="
M 487.00 603.00 
C 493.86 601.27 503.72 605.36 512.00 604.00 C 520.28 602.64 530.34 604.61 539.00 604.00 C 547.66 603.39 557.18 604.27 566.00 604.00 C 574.82 603.73 584.14 604.12 593.00 604.00 C 601.86 603.88 611.20 604.04 620.00 604.00 C 628.80 603.96 637.30 603.98 646.00 604.00 C 654.70 604.02 664.48 603.91 673.00 604.00 C 681.52 604.09 691.98 603.79 700.00 604.00 C 708.02 604.21 720.13 603.53 727.00 604.00 C 733.87 604.47 749.55 601.61 749.00 607.00
C 735.99 631.73 720.64 655.45 707.00 680.00
C 739.39 681.67 773.59 681.65 806.00 680.00
C 761.35 602.18 714.02 525.38 671.00 447.00
C 699.00 447.00 727.00 447.00 755.00 447.00
C 741.52 420.07 725.16 393.45 709.00 368.00
C 704.24 374.71 700.12 382.63 695.77 389.77 C 691.42 396.92 687.47 404.10 683.25 411.25 C 679.04 418.41 674.75 425.52 670.77 432.77 C 666.79 440.02 661.84 446.64 657.92 453.92 C 654.01 461.21 649.45 468.13 645.31 475.31 C 641.16 482.48 637.14 489.78 632.92 496.92 C 628.70 504.06 624.48 511.13 620.30 518.30 C 616.12 525.48 611.80 532.52 607.77 539.77 C 603.74 547.02 599.07 553.71 594.92 560.92 C 590.78 568.14 586.67 575.33 582.75 582.75 C 578.83 590.18 573.38 600.50 568.92 591.08 C 564.46 581.66 560.66 577.84 556.30 569.70 C 551.95 561.55 548.22 555.67 543.77 548.23 C 539.32 540.79 536.14 533.06 530.00 528.00
C 519.30 554.57 498.00 576.53 487.00 603.00 Z"/>
</g>
<g fill="#000000" fill-opacity="0.00" stroke="None">
<path d="
M 576.00 397.00 
C 561.46 394.85 544.59 397.42 530.00 396.00 C 515.41 394.58 513.28 409.08 506.77 418.77 C 500.26 428.47 495.90 438.14 489.77 447.77 C 483.64 457.40 478.69 467.15 472.77 476.77 C 466.85 486.39 461.53 496.13 455.77 505.77 C 450.01 515.41 444.48 525.15 438.77 534.77 C 433.06 544.39 427.29 554.11 421.77 563.77 C 416.25 573.43 409.98 583.05 404.77 592.77 C 399.56 602.49 392.14 611.84 387.77 621.77 C 383.40 631.70 373.02 640.58 371.33 651.33 C 369.64 662.08 376.37 676.17 388.33 679.67 C 400.28 683.18 419.02 680.25 433.00 681.00 C 446.98 681.75 464.28 680.59 479.00 681.00 C 493.72 681.41 509.95 680.66 525.00 681.00 C 540.05 681.34 555.81 680.50 571.00 681.00 C 586.19 681.50 601.77 680.01 617.00 681.00 C 632.23 681.99 647.81 678.85 663.00 681.00 C 678.19 683.15 682.02 670.97 688.08 660.08 C 694.14 649.19 699.48 641.90 705.00 631.00
C 616.67 631.00 528.33 631.00 440.00 631.00
C 483.14 552.16 531.45 475.42 576.00 397.00 Z"/>
</g>
<g fill="#000000" fill-opacity="0.00" stroke="None">
<path d="
M 581.00 707.00 
C 585.13 720.19 593.21 725.10 598.70 738.31 C 604.18 751.51 611.67 760.62 628.00 758.00 C 644.33 755.38 660.77 759.20 677.00 758.00 C 693.23 756.80 708.83 758.52 725.00 758.00 C 741.17 757.48 757.89 758.21 774.00 758.00 C 790.11 757.79 807.11 758.04 823.00 758.00 C 838.89 757.96 856.62 757.89 872.00 758.00 C 887.38 758.11 900.28 759.35 911.75 749.75 C 923.23 740.15 919.31 724.63 912.92 714.08 C 906.53 703.53 900.95 693.59 894.77 683.23 C 888.60 672.87 883.08 663.31 876.92 653.08 C 870.77 642.84 865.24 632.23 858.92 622.08 C 852.59 611.94 847.12 601.32 840.77 591.23 C 834.42 581.13 829.05 570.27 822.77 560.23 C 816.49 550.19 811.40 539.96 804.92 530.08 C 798.43 520.20 793.90 508.70 786.77 499.23 C 779.64 489.76 778.04 473.20 764.00 473.00 C 749.97 472.80 730.53 473.15 716.00 473.00
C 760.03 551.01 807.04 627.96 851.00 706.00
C 761.50 708.33 670.92 706.33 581.00 707.00 Z"/>
</g>
<g fill="#FEFEFE" fill-opacity="0.54" stroke="None">
<path d="
M 749.00 607.00 
C 749.55 601.61 733.87 604.47 727.00 604.00 C 720.13 603.53 708.02 604.21 700.00 604.00 C 691.98 603.79 681.52 604.09 673.00 604.00 C 664.48 603.91 654.70 604.02 646.00 604.00 C 637.30 603.98 628.80 603.96 620.00 604.00 C 611.20 604.04 601.86 603.88 593.00 604.00 C 584.14 604.12 574.82 603.73 566.00 604.00 C 557.18 604.27 547.66 603.39 539.00 604.00 C 530.34 604.61 520.28 602.64 512.00 604.00 C 503.72 605.36 493.86 601.27 487.00 603.00
C 484.89 608.08 494.68 605.58 501.00 606.00 C 507.32 606.42 515.32 605.81 522.00 606.00 C 528.68 606.19 536.18 605.91 543.00 606.00 C 549.82 606.09 557.15 605.96 564.00 606.00 C 570.85 606.04 577.13 605.98 584.00 606.00 C 590.87 606.02 598.08 605.98 605.00 606.00 C 611.92 606.02 619.09 605.98 626.00 606.00 C 632.91 606.02 640.17 605.95 647.00 606.00 C 653.83 606.05 660.26 605.89 667.00 606.00 C 673.74 606.11 681.41 605.76 688.00 606.00 C 694.59 606.24 702.84 605.48 709.00 606.00 C 715.16 606.52 724.82 604.86 730.00 606.00 C 735.18 607.14 746.49 602.84 749.00 607.00 Z"/>
</g>
<g fill="#FEFEFE" fill-opacity="0.90" stroke="None">
<path d="
M 628.00 802.00 
C 610.32 797.62 603.37 822.03 619.93 828.07 C 636.49 834.12 644.24 806.02 628.00 802.00 Z"/>
</g>
<g fill="#FEFEFE" fill-opacity="0.94" stroke="None">
<path d="
M 671.00 915.00 
C 675.11 912.04 670.42 900.75 672.00 896.00 C 673.58 891.25 670.05 881.71 673.00 877.00
C 675.38 877.39 671.94 879.67 674.00 880.00
C 681.49 890.04 689.70 892.67 697.25 903.75 C 704.80 914.83 718.97 917.75 733.00 915.00
C 722.76 899.44 705.59 887.37 695.00 872.00
C 707.12 860.57 718.84 847.78 729.00 835.00
C 716.79 833.97 701.36 833.18 694.75 843.75 C 688.15 854.33 680.98 855.76 675.00 866.00
C 675.14 865.76 675.12 869.44 673.00 869.00
C 670.68 847.83 672.66 825.58 672.00 804.00
C 659.18 801.27 650.03 804.30 652.00 817.00 C 653.97 829.70 651.08 838.25 652.00 850.00 C 652.92 861.75 651.50 871.69 652.00 883.00 C 652.50 894.31 651.63 903.85 652.00 915.00
C 657.85 913.56 665.32 916.92 671.00 915.00 Z"/>
</g>
<g fill="#FEFEFE" fill-opacity="0.53" stroke="None">
<path d="
M 675.00 866.00 
C 675.05 860.44 673.64 851.26 674.00 845.00 C 674.36 838.74 674.51 828.58 674.00 823.00 C 673.49 817.42 676.81 806.38 672.00 804.00
C 672.66 825.58 670.68 847.83 673.00 869.00
C 675.12 869.44 675.14 865.76 675.00 866.00 Z"/>
</g>
<g fill="#FEFEFE" fill-opacity="0.96" stroke="None">
<path d="
M 403.00 835.00 
C 404.77 839.94 403.72 845.67 404.00 851.00
C 406.44 851.40 414.33 849.70 413.00 853.00
C 413.00 873.67 413.00 894.33 413.00 915.00
C 420.00 915.00 427.00 915.00 434.00 915.00
C 434.95 904.90 432.74 894.02 434.00 884.00 C 435.26 873.98 431.58 862.73 434.00 853.00
C 434.81 849.73 440.83 851.35 445.00 851.00
C 445.00 846.00 445.00 841.00 445.00 836.00
C 440.87 836.37 434.69 836.77 434.00 834.00
C 434.00 824.34 434.00 814.67 434.00 805.00
C 427.00 805.00 420.00 805.00 413.00 805.00
C 412.91 813.55 413.13 823.57 412.97 831.97 C 412.81 840.37 406.71 832.41 403.00 835.00 Z"/>
</g>
<g fill="#FEFEFE" fill-opacity="0.92" stroke="None">
<path d="
M 336.00 904.00 
C 341.74 909.47 347.21 914.25 354.98 916.02 C 362.74 917.80 373.99 917.40 380.92 913.92 C 387.86 910.45 393.06 905.12 394.67 897.67 C 396.28 890.22 394.41 878.77 387.70 874.30 C 380.99 869.84 377.24 865.32 368.70 863.31 C 360.15 861.29 356.83 850.29 367.99 852.01 C 379.15 853.73 377.76 860.60 386.75 852.75 C 395.75 844.91 391.20 842.19 383.69 837.31 C 376.19 832.42 366.47 831.92 358.22 833.22 C 349.98 834.53 345.91 840.05 341.31 846.31 C 336.70 852.56 339.35 863.78 343.75 869.25 C 348.16 874.71 356.21 879.62 361.92 882.08 C 367.64 884.54 379.62 889.95 372.69 896.69 C 365.77 903.44 356.38 893.71 351.22 890.78 C 346.07 887.85 338.85 900.89 336.00 904.00 Z"/>
</g>
<g fill="#FEFEFE" fill-opacity="0.94" stroke="None">
<path d="
M 483.00 913.00 
C 484.05 910.40 481.32 903.23 482.00 899.00 C 482.68 894.77 482.62 888.73 482.00 884.00 C 481.38 879.27 483.24 872.84 484.00 870.00
C 482.73 860.06 489.39 846.93 501.00 852.00
C 502.07 846.20 511.07 834.29 502.00 833.00 C 492.93 831.71 485.79 834.40 482.00 842.00
C 482.81 830.98 469.68 836.09 462.00 835.00
C 462.00 861.67 462.00 888.33 462.00 915.00
C 468.00 913.43 479.59 917.98 483.00 913.00 Z"/>
</g>
<g fill="#FEFFFE" fill-opacity="0.93" stroke="None">
<path d="
M 565.00 833.00 
C 529.81 827.28 503.35 860.81 516.08 891.92 C 528.80 923.04 568.39 924.58 589.25 902.25 C 610.10 879.91 595.45 837.95 565.00 833.00
M 559.00 852.00 
C 586.99 855.50 580.11 903.03 552.00 898.00 C 523.89 892.97 530.78 848.47 559.00 852.00 Z"/>
</g>
<g fill="#FEFEFE" fill-opacity="0.94" stroke="None">
<path d="
M 784.00 833.00 
C 750.39 827.54 721.91 859.91 734.23 890.77 C 746.55 921.63 786.62 925.32 807.75 902.75 C 828.89 880.18 815.16 838.06 784.00 833.00
M 778.00 852.00 
C 805.54 855.39 800.43 901.59 772.00 898.00 C 743.57 894.41 749.03 848.43 778.00 852.00 Z"/>
</g>
<g fill="#FEFEFE" fill-opacity="0.94" stroke="None">
<path d="
M 848.00 915.00 
C 847.50 915.02 848.22 904.48 848.00 902.00 C 847.78 899.52 848.20 889.86 848.00 887.00 C 847.80 884.14 847.87 873.24 849.00 874.00
C 849.35 874.23 850.00 874.00 850.00 874.00
C 849.38 865.15 852.98 853.67 863.00 852.00 C 873.02 850.33 881.74 857.53 880.00 869.00 C 878.26 880.47 882.43 890.15 880.00 903.00 C 877.57 915.85 890.09 917.15 902.00 915.00
C 902.73 898.61 900.30 879.17 903.70 863.70 C 907.09 848.22 931.16 847.58 932.00 864.00 C 932.85 880.42 933.44 898.15 933.00 915.00
C 940.00 915.00 947.00 915.00 954.00 915.00
C 950.92 893.00 960.12 862.93 949.30 843.70 C 938.48 824.46 909.34 832.31 898.00 846.00
C 889.13 828.05 862.82 829.70 850.00 842.00
C 851.92 829.69 835.17 836.92 828.00 835.00
C 828.00 861.67 828.00 888.33 828.00 915.00
C 833.98 913.28 842.25 917.29 848.00 915.00 Z"/>
</g>
<g fill="#FFFFFF" fill-opacity="0.71" stroke="None">
<path d="
M 445.00 836.00 
C 445.00 835.50 445.00 835.00 445.00 835.00
C 442.52 834.78 435.66 836.34 434.00 834.00
C 434.69 836.77 440.87 836.37 445.00 836.00 Z"/>
</g>
<g fill="#FFFFFF" fill-opacity="0.47" stroke="None">
<path d="
M 413.00 853.00 
C 414.33 849.70 406.44 851.40 404.00 851.00
C 403.72 845.67 404.77 839.94 403.00 835.00
C 399.42 837.51 403.42 844.72 402.01 848.99 C 400.60 853.26 410.05 854.40 413.00 853.00 Z"/>
</g>
<g fill="#FEFEFE" fill-opacity="0.50" stroke="None">
<path d="
M 445.00 836.00 
C 445.00 841.00 445.00 846.00 445.00 851.00
C 440.83 851.35 434.81 849.73 434.00 853.00
C 437.30 854.57 447.25 852.98 447.00 849.00 C 446.75 845.02 448.77 835.22 445.00 835.00
C 445.00 835.00 445.00 835.50 445.00 836.00 Z"/>
</g>
<g fill="#FFFFFF" fill-opacity="0.95" stroke="None">
<path d="
M 634.00 835.00 
C 627.00 835.00 620.00 835.00 613.00 835.00
C 613.00 861.67 613.00 888.33 613.00 915.00
C 620.00 915.00 627.00 915.00 634.00 915.00
C 635.93 888.80 632.83 861.83 634.00 835.00 Z"/>
</g>
<g fill="#000000" fill-opacity="0.00" stroke="None">
<path d="
M 559.00 852.00 
C 530.78 848.47 523.89 892.97 552.00 898.00 C 580.11 903.03 586.99 855.50 559.00 852.00 Z"/>
</g>
<g fill="#000000" fill-opacity="0.00" stroke="None">
<path d="
M 778.00 852.00 
C 749.03 848.43 743.57 894.41 772.00 898.00 C 800.43 901.59 805.54 855.39 778.00 852.00 Z"/>
</g>
<g fill="#FFFFFF" fill-opacity="0.45" stroke="None">
<path d="
M 483.00 913.00 
C 486.64 907.70 483.09 898.43 484.00 892.00 C 484.91 885.57 483.75 876.67 484.00 870.00
C 483.24 872.84 481.38 879.27 482.00 884.00 C 482.62 888.73 482.68 894.77 482.00 899.00 C 481.32 903.23 484.05 910.40 483.00 913.00 Z"/>
</g>
<g fill="#FFFFFF" fill-opacity="0.82" stroke="None">
<path d="
M 848.00 915.00 
C 849.14 914.55 848.87 914.06 849.00 913.00
C 850.58 900.19 847.84 886.86 849.00 874.00
C 847.87 873.24 847.80 884.14 848.00 887.00 C 848.20 889.86 847.78 899.52 848.00 902.00 C 848.22 904.48 847.50 915.02 848.00 915.00 Z"/>
</g>
<g fill="#FFFFFF" fill-opacity="0.09" stroke="None">
<path d="
M 849.00 913.00 
C 853.06 903.06 850.00 885.28 850.00 874.00
C 850.00 874.00 849.35 874.23 849.00 874.00
C 847.84 886.86 850.58 900.19 849.00 913.00 Z"/>
</g>
<g fill="#FEFEFE" fill-opacity="0.54" stroke="None">
<path d="
M 671.00 915.00 
C 676.28 913.22 673.88 904.32 674.00 899.00 C 674.12 893.68 674.63 885.49 674.00 880.00
C 671.94 879.67 675.38 877.39 673.00 877.00
C 670.05 881.71 673.58 891.25 672.00 896.00 C 670.42 900.75 675.11 912.04 671.00 915.00 Z"/>
</g>
<g fill="#FEFEFE" fill-opacity="0.96" stroke="None">
<path d="
M 312.00 1058.00 
C 314.24 1061.23 324.91 1056.69 330.00 1058.00 C 335.09 1059.31 344.97 1057.38 351.00 1058.00 C 357.03 1058.62 364.48 1057.74 371.00 1058.00 C 377.52 1058.26 385.25 1057.88 392.00 1058.00 C 398.75 1058.12 406.19 1057.94 413.00 1058.00 C 419.81 1058.06 426.15 1057.98 433.00 1058.00 C 439.85 1058.02 447.10 1057.99 454.00 1058.00 C 460.90 1058.01 468.13 1057.99 475.00 1058.00 C 481.87 1058.01 488.14 1058.00 495.00 1058.00 C 501.86 1058.00 509.14 1058.00 516.00 1058.00 C 522.86 1058.00 529.12 1058.00 536.00 1058.00 C 542.88 1058.00 550.09 1058.00 557.00 1058.00 C 563.91 1058.00 571.11 1058.00 578.00 1058.00 C 584.89 1058.00 591.11 1058.00 598.00 1058.00 C 604.89 1058.00 612.09 1058.00 619.00 1058.00 C 625.91 1058.00 633.12 1058.00 640.00 1058.00 C 646.88 1058.00 653.14 1058.00 660.00 1058.00 C 666.86 1058.00 674.13 1058.00 681.00 1058.00 C 687.87 1058.00 694.12 1058.00 701.00 1058.00 C 707.88 1058.00 715.09 1058.00 722.00 1058.00 C 728.91 1058.00 736.11 1058.00 743.00 1058.00 C 749.89 1058.00 756.11 1058.00 763.00 1058.00 C 769.89 1058.00 777.09 1058.00 784.00 1058.00 C 790.91 1058.00 798.12 1058.00 805.00 1058.00 C 811.88 1058.00 818.14 1058.00 825.00 1058.00 C 831.86 1058.00 839.14 1058.00 846.00 1058.00 C 852.86 1058.00 859.13 1057.99 866.00 1058.00 C 872.87 1058.01 880.11 1057.99 887.00 1058.00 C 893.89 1058.01 901.16 1057.97 908.00 1058.00 C 914.84 1058.03 921.23 1057.94 928.00 1058.00 C 934.77 1058.06 942.33 1057.86 949.00 1058.00 C 955.67 1058.14 962.11 1057.66 968.00 1058.00
C 968.00 1013.00 968.00 968.00 968.00 923.00
C 749.33 923.00 530.67 923.00 312.00 923.00
C 312.13 931.93 311.82 941.09 312.00 950.00 C 312.18 958.91 311.66 968.17 312.00 977.00 C 312.34 985.83 311.27 995.36 312.00 1004.00 C 312.73 1012.64 310.38 1022.80 312.00 1031.00 C 313.62 1039.20 308.42 1050.77 312.00 1058.00
M 660.00 939.00 
C 673.39 943.06 664.65 967.34 650.99 961.01 C 637.34 954.68 644.43 934.28 660.00 939.00
M 609.00 1042.00 
C 604.70 1040.93 607.89 1029.56 607.00 1024.00 C 606.11 1018.44 607.50 1008.12 608.00 1003.00
C 608.00 993.03 604.32 980.64 592.33 983.33 C 580.33 986.03 578.87 994.20 578.00 1005.00 C 577.14 1015.81 578.65 1030.81 578.00 1042.00
C 572.00 1042.00 566.00 1042.00 560.00 1042.00
C 559.48 1031.66 560.70 1021.34 560.00 1011.00 C 559.30 1000.66 561.34 990.35 560.00 980.00 C 558.66 969.65 562.88 959.37 560.00 949.00 C 557.12 938.63 575.84 934.89 577.99 944.01 C 580.14 953.12 576.40 966.50 578.00 976.00
C 584.98 973.22 590.80 966.88 599.01 967.01 C 607.21 967.13 614.89 968.34 620.75 975.25 C 626.62 982.16 625.55 989.33 627.00 999.00 C 628.44 1008.68 624.84 1017.86 627.00 1029.00 C 629.16 1040.14 621.23 1045.55 609.00 1042.00
M 936.00 941.00 
C 938.28 949.84 936.37 959.75 937.00 969.00
C 948.57 965.34 949.24 975.27 948.00 984.00
C 944.33 984.00 940.67 984.00 937.00 984.00
C 937.42 992.98 936.44 999.80 937.00 1009.00 C 937.56 1018.20 935.96 1025.18 937.00 1035.00 C 938.04 1044.82 925.55 1041.86 918.00 1042.00
C 918.00 1022.67 918.00 1003.33 918.00 984.00
C 915.00 984.00 912.00 984.00 909.00 984.00
C 909.00 979.00 909.00 974.00 909.00 969.00
C 912.00 969.00 915.00 969.00 918.00 969.00
C 918.43 961.24 917.43 952.68 918.00 945.00 C 918.57 937.32 931.11 945.05 936.00 941.00
M 709.00 942.00 
C 709.00 951.00 709.00 960.00 709.00 969.00
C 712.67 969.00 716.33 969.00 720.00 969.00
C 722.52 978.23 721.23 987.67 709.00 984.00
C 709.00 1003.33 709.00 1022.67 709.00 1042.00
C 703.00 1042.00 697.00 1042.00 691.00 1042.00
C 691.00 1022.67 691.00 1003.33 691.00 984.00
C 676.95 990.10 676.93 962.92 691.00 969.00
C 691.00 960.00 691.00 951.00 691.00 942.00
C 697.00 942.00 703.00 942.00 709.00 942.00
M 392.00 976.00 
C 389.05 964.61 403.46 970.36 410.00 969.00
C 410.00 993.33 410.00 1017.67 410.00 1042.00
C 403.42 1040.62 389.11 1046.44 392.00 1035.00
C 377.79 1047.21 354.57 1047.30 341.75 1032.25 C 328.94 1017.20 328.69 994.86 341.25 979.25 C 353.81 963.63 377.36 964.22 392.00 976.00
M 444.00 1002.00 
C 444.00 1007.36 444.94 1017.08 444.00 1022.00 C 443.06 1026.92 446.81 1039.33 443.00 1042.00
C 441.01 1043.39 428.49 1042.62 426.00 1042.00
C 421.80 1040.95 424.35 1025.11 424.00 1019.00 C 423.65 1012.89 423.68 998.14 424.00 992.00 C 424.32 985.86 421.85 970.03 426.00 969.00
C 432.07 967.49 444.40 967.63 441.00 977.00
C 445.67 972.02 453.81 964.87 461.00 967.00 C 468.19 969.13 462.93 984.48 455.00 983.00 C 447.07 981.52 442.14 995.09 444.00 1002.00
M 543.00 984.00 
C 535.75 987.68 529.72 993.10 522.92 987.08 C 516.12 981.07 503.69 983.33 496.31 986.31 C 488.92 989.28 485.27 998.70 485.00 1006.00 C 484.73 1013.30 489.58 1023.69 497.23 1025.77 C 504.87 1027.85 515.64 1030.90 522.69 1024.69 C 529.75 1018.49 534.62 1023.41 542.00 1028.00
C 521.98 1058.84 465.97 1043.57 467.00 1005.00 C 468.03 966.43 522.89 953.27 543.00 984.00
M 809.00 1010.00 
C 810.32 1010.38 809.45 1010.62 809.00 1011.00
C 802.76 1016.22 787.36 1010.23 779.00 1012.00 C 770.64 1013.77 756.90 1011.51 749.00 1011.00
C 745.20 1014.80 754.38 1026.06 760.08 1026.92 C 765.77 1027.78 777.43 1031.20 783.23 1025.23 C 789.02 1019.26 796.58 1025.63 803.00 1028.00
C 777.78 1065.09 716.50 1033.58 732.78 991.78 C 749.06 949.97 814.01 965.65 809.00 1010.00
M 896.00 984.00 
C 887.86 989.20 882.35 992.18 874.77 986.23 C 867.19 980.28 855.49 983.73 847.77 987.77 C 840.05 991.81 836.51 1002.62 838.78 1011.22 C 841.04 1019.82 846.97 1025.92 856.00 1027.00 C 865.03 1028.08 875.05 1028.21 881.00 1020.00
C 886.04 1021.63 890.09 1026.15 895.00 1028.00
C 875.03 1058.88 819.02 1043.51 820.00 1005.00 C 820.98 966.49 876.00 953.14 896.00 984.00
M 664.00 969.00 
C 664.00 993.33 664.00 1017.67 664.00 1042.00
C 658.00 1042.00 652.00 1042.00 646.00 1042.00
C 646.00 1017.66 646.00 993.34 646.00 969.00
C 652.00 969.00 658.00 969.00 664.00 969.00 Z"/>
</g>
<g fill="#000000" fill-opacity="0.00" stroke="None">
<path d="
M 660.00 939.00 
C 644.43 934.28 637.34 954.68 650.99 961.01 C 664.65 967.34 673.39 943.06 660.00 939.00 Z"/>
</g>
<g fill="#000000" fill-opacity="0.00" stroke="None">
<path d="
M 608.00 1003.00 
C 608.00 1003.50 608.00 1004.00 608.00 1004.00
C 611.31 1008.47 608.08 1016.18 609.00 1022.00 C 609.92 1027.82 608.31 1035.97 609.00 1042.00
C 621.23 1045.55 629.16 1040.14 627.00 1029.00 C 624.84 1017.86 628.44 1008.68 627.00 999.00 C 625.55 989.33 626.62 982.16 620.75 975.25 C 614.89 968.34 607.21 967.13 599.01 967.01 C 590.80 966.88 584.98 973.22 578.00 976.00
C 576.40 966.50 580.14 953.12 577.99 944.01 C 575.84 934.89 557.12 938.63 560.00 949.00 C 562.88 959.37 558.66 969.65 560.00 980.00 C 561.34 990.35 559.30 1000.66 560.00 1011.00 C 560.70 1021.34 559.48 1031.66 560.00 1042.00
C 566.00 1042.00 572.00 1042.00 578.00 1042.00
C 578.65 1030.81 577.14 1015.81 578.00 1005.00 C 578.87 994.20 580.33 986.03 592.33 983.33 C 604.32 980.64 608.00 993.03 608.00 1003.00 Z"/>
</g>
<g fill="#000000" fill-opacity="0.00" stroke="None">
<path d="
M 936.00 941.00 
C 931.11 945.05 918.57 937.32 918.00 945.00 C 917.43 952.68 918.43 961.24 918.00 969.00
C 915.00 969.00 912.00 969.00 909.00 969.00
C 909.00 974.00 909.00 979.00 909.00 984.00
C 912.00 984.00 915.00 984.00 918.00 984.00
C 918.00 1003.33 918.00 1022.67 918.00 1042.00
C 925.55 1041.86 938.04 1044.82 937.00 1035.00 C 935.96 1025.18 937.56 1018.20 937.00 1009.00 C 936.44 999.80 937.42 992.98 937.00 984.00
C 940.67 984.00 944.33 984.00 948.00 984.00
C 949.24 975.27 948.57 965.34 937.00 969.00
C 936.37 959.75 938.28 949.84 936.00 941.00 Z"/>
</g>
<g fill="#000000" fill-opacity="0.00" stroke="None">
<path d="
M 709.00 942.00 
C 703.00 942.00 697.00 942.00 691.00 942.00
C 691.00 951.00 691.00 960.00 691.00 969.00
C 676.93 962.92 676.95 990.10 691.00 984.00
C 691.00 1003.33 691.00 1022.67 691.00 1042.00
C 697.00 1042.00 703.00 1042.00 709.00 1042.00
C 709.00 1022.67 709.00 1003.33 709.00 984.00
C 721.23 987.67 722.52 978.23 720.00 969.00
C 716.33 969.00 712.67 969.00 709.00 969.00
C 709.00 960.00 709.00 951.00 709.00 942.00 Z"/>
</g>
<g fill="#000000" fill-opacity="0.00" stroke="None">
<path d="
M 392.00 976.00 
C 377.36 964.22 353.81 963.63 341.25 979.25 C 328.69 994.86 328.94 1017.20 341.75 1032.25 C 354.57 1047.30 377.79 1047.21 392.00 1035.00
C 389.11 1046.44 403.42 1040.62 410.00 1042.00
C 410.00 1017.67 410.00 993.33 410.00 969.00
C 403.46 970.36 389.05 964.61 392.00 976.00
M 372.00 983.00 
C 399.65 983.24 399.01 1028.85 371.00 1028.00 C 342.99 1027.14 344.13 982.76 372.00 983.00 Z"/>
</g>
<g fill="#000000" fill-opacity="0.00" stroke="None">
<path d="
M 426.00 969.00 
C 428.87 975.05 425.27 986.13 426.00 993.00 C 426.73 999.87 426.91 1010.07 426.00 1017.00 C 425.09 1023.93 428.95 1035.79 426.00 1042.00
C 428.49 1042.62 441.01 1043.39 443.00 1042.00
C 442.82 1028.75 442.79 1014.45 444.00 1002.00
C 442.14 995.09 447.07 981.52 455.00 983.00 C 462.93 984.48 468.19 969.13 461.00 967.00 C 453.81 964.87 445.67 972.02 441.00 977.00
C 444.40 967.63 432.07 967.49 426.00 969.00 Z"/>
</g>
<g fill="#000000" fill-opacity="0.00" stroke="None">
<path d="
M 543.00 984.00 
C 522.89 953.27 468.03 966.43 467.00 1005.00 C 465.97 1043.57 521.98 1058.84 542.00 1028.00
C 534.62 1023.41 529.75 1018.49 522.69 1024.69 C 515.64 1030.90 504.87 1027.85 497.23 1025.77 C 489.58 1023.69 484.73 1013.30 485.00 1006.00 C 485.27 998.70 488.92 989.28 496.31 986.31 C 503.69 983.33 516.12 981.07 522.92 987.08 C 529.72 993.10 535.75 987.68 543.00 984.00 Z"/>
</g>
<g fill="#000000" fill-opacity="0.00" stroke="None">
<path d="
M 749.00 1011.00 
C 752.58 1007.42 762.52 1010.62 768.00 1010.00 C 773.48 1009.38 782.04 1009.54 788.00 1010.00 C 793.96 1010.46 803.17 1008.31 809.00 1010.00
C 814.01 965.65 749.06 949.97 732.78 991.78 C 716.50 1033.58 777.78 1065.09 803.00 1028.00
C 796.58 1025.63 789.02 1019.26 783.23 1025.23 C 777.43 1031.20 765.77 1027.78 760.08 1026.92 C 754.38 1026.06 745.20 1014.80 749.00 1011.00
M 776.00 982.00 
C 781.25 983.09 784.90 985.85 788.75 991.25 C 792.60 996.64 780.94 998.51 775.00 997.00 C 769.06 995.49 758.03 998.63 752.00 997.00 C 745.97 995.37 752.41 988.29 756.70 985.70 C 760.98 983.10 770.15 980.79 776.00 982.00 Z"/>
</g>
<g fill="#000000" fill-opacity="0.00" stroke="None">
<path d="
M 896.00 984.00 
C 876.00 953.14 820.98 966.49 820.00 1005.00 C 819.02 1043.51 875.03 1058.88 895.00 1028.00
C 890.09 1026.15 886.04 1021.63 881.00 1020.00
C 875.05 1028.21 865.03 1028.08 856.00 1027.00 C 846.97 1025.92 841.04 1019.82 838.78 1011.22 C 836.51 1002.62 840.05 991.81 847.77 987.77 C 855.49 983.73 867.19 980.28 874.77 986.23 C 882.35 992.18 887.86 989.20 896.00 984.00 Z"/>
</g>
<g fill="#FEFEFE" fill-opacity="0.47" stroke="None">
<path d="
M 426.00 1042.00 
C 428.95 1035.79 425.09 1023.93 426.00 1017.00 C 426.91 1010.07 426.73 999.87 426.00 993.00 C 425.27 986.13 428.87 975.05 426.00 969.00
C 421.85 970.03 424.32 985.86 424.00 992.00 C 423.68 998.14 423.65 1012.89 424.00 1019.00 C 424.35 1025.11 421.80 1040.95 426.00 1042.00 Z"/>
</g>
<g fill="#000000" fill-opacity="0.00" stroke="None">
<path d="
M 664.00 969.00 
C 658.00 969.00 652.00 969.00 646.00 969.00
C 646.00 993.34 646.00 1017.66 646.00 1042.00
C 652.00 1042.00 658.00 1042.00 664.00 1042.00
C 664.00 1017.67 664.00 993.33 664.00 969.00 Z"/>
</g>
<g fill="#FEFFFE" fill-opacity="0.84" stroke="None">
<path d="
M 776.00 982.00 
C 770.15 980.79 760.98 983.10 756.70 985.70 C 752.41 988.29 745.97 995.37 752.00 997.00 C 758.03 998.63 769.06 995.49 775.00 997.00 C 780.94 998.51 792.60 996.64 788.75 991.25 C 784.90 985.85 781.25 983.09 776.00 982.00 Z"/>
</g>
<g fill="#FEFFFE" fill-opacity="0.94" stroke="None">
<path d="
M 372.00 983.00 
C 344.13 982.76 342.99 1027.14 371.00 1028.00 C 399.01 1028.85 399.65 983.24 372.00 983.00 Z"/>
</g>
<g fill="#FFFFFF" fill-opacity="0.10" stroke="None">
<path d="
M 443.00 1042.00 
C 446.81 1039.33 443.06 1026.92 444.00 1022.00 C 444.94 1017.08 444.00 1007.36 444.00 1002.00
C 442.79 1014.45 442.82 1028.75 443.00 1042.00 Z"/>
</g>
<g fill="#FEFEFE" fill-opacity="0.85" stroke="None">
<path d="
M 609.00 1042.00 
C 607.18 1030.24 607.99 1016.51 608.00 1004.00
C 608.00 1004.00 608.00 1003.50 608.00 1003.00
C 607.50 1008.12 606.11 1018.44 607.00 1024.00 C 607.89 1029.56 604.70 1040.93 609.00 1042.00 Z"/>
</g>
<g fill="#FFFFFF" fill-opacity="0.06" stroke="None">
<path d="
M 609.00 1042.00 
C 608.31 1035.97 609.92 1027.82 609.00 1022.00 C 608.08 1016.18 611.31 1008.47 608.00 1004.00
C 607.99 1016.51 607.18 1030.24 609.00 1042.00 Z"/>
</g>
<g fill="#FFFFFF" fill-opacity="0.07" stroke="None">
<path d="
M 749.00 1011.00 
C 758.70 1009.95 769.40 1012.40 779.00 1011.00 C 788.60 1009.60 799.78 1013.67 809.00 1011.00
C 809.45 1010.62 810.32 1010.38 809.00 1010.00
C 803.17 1008.31 793.96 1010.46 788.00 1010.00 C 782.04 1009.54 773.48 1009.38 768.00 1010.00 C 762.52 1010.62 752.58 1007.42 749.00 1011.00 Z"/>
</g>
<g fill="#FFFFFF" fill-opacity="0.80" stroke="None">
<path d="
M 809.00 1011.00 
C 799.78 1013.67 788.60 1009.60 779.00 1011.00 C 769.40 1012.40 758.70 1009.95 749.00 1011.00
C 756.90 1011.51 770.64 1013.77 779.00 1012.00 C 787.36 1010.23 802.76 1016.22 809.00 1011.00 Z"/>
</g>
<g fill="#FEFFFE" fill-opacity="0.52" stroke="None">
<path d="
M 312.00 1058.00 
C 314.92 1063.90 330.32 1058.61 337.00 1060.00 C 343.68 1061.39 355.11 1059.39 363.00 1060.00 C 370.89 1060.61 381.63 1059.72 390.00 1060.00 C 398.37 1060.28 407.42 1059.87 416.00 1060.00 C 424.58 1060.13 433.27 1059.94 442.00 1060.00 C 450.73 1060.06 460.22 1059.97 469.00 1060.00 C 477.78 1060.03 486.19 1059.99 495.00 1060.00 C 503.81 1060.01 513.20 1059.99 522.00 1060.00 C 530.80 1060.01 539.23 1060.00 548.00 1060.00 C 556.77 1060.00 565.19 1060.00 574.00 1060.00 C 582.81 1060.00 592.18 1060.00 601.00 1060.00 C 609.82 1060.00 618.18 1060.00 627.00 1060.00 C 635.82 1060.00 645.19 1060.00 654.00 1060.00 C 662.81 1060.00 671.23 1060.00 680.00 1060.00 C 688.77 1060.00 697.19 1060.00 706.00 1060.00 C 714.81 1060.00 724.18 1060.00 733.00 1060.00 C 741.82 1060.00 750.19 1060.01 759.00 1060.00 C 767.81 1059.99 777.21 1060.01 786.00 1060.00 C 794.79 1059.99 803.26 1060.02 812.00 1060.00 C 820.74 1059.98 829.28 1060.05 838.00 1060.00 C 846.72 1059.95 856.36 1060.11 865.00 1060.00 C 873.64 1059.89 882.60 1060.26 891.00 1060.00 C 899.40 1059.74 910.09 1060.56 918.00 1060.00 C 925.91 1059.44 937.30 1061.29 944.00 1060.00 C 950.69 1058.71 965.13 1063.81 968.00 1058.00
C 962.11 1057.66 955.67 1058.14 949.00 1058.00 C 942.33 1057.86 934.77 1058.06 928.00 1058.00 C 921.23 1057.94 914.84 1058.03 908.00 1058.00 C 901.16 1057.97 893.89 1058.01 887.00 1058.00 C 880.11 1057.99 872.87 1058.01 866.00 1058.00 C 859.13 1057.99 852.86 1058.00 846.00 1058.00 C 839.14 1058.00 831.86 1058.00 825.00 1058.00 C 818.14 1058.00 811.88 1058.00 805.00 1058.00 C 798.12 1058.00 790.91 1058.00 784.00 1058.00 C 777.09 1058.00 769.89 1058.00 763.00 1058.00 C 756.11 1058.00 749.89 1058.00 743.00 1058.00 C 736.11 1058.00 728.91 1058.00 722.00 1058.00 C 715.09 1058.00 707.88 1058.00 701.00 1058.00 C 694.12 1058.00 687.87 1058.00 681.00 1058.00 C 674.13 1058.00 666.86 1058.00 660.00 1058.00 C 653.14 1058.00 646.88 1058.00 640.00 1058.00 C 633.12 1058.00 625.91 1058.00 619.00 1058.00 C 612.09 1058.00 604.89 1058.00 598.00 1058.00 C 591.11 1058.00 584.89 1058.00 578.00 1058.00 C 571.11 1058.00 563.91 1058.00 557.00 1058.00 C 550.09 1058.00 542.88 1058.00 536.00 1058.00 C 529.12 1058.00 522.86 1058.00 516.00 1058.00 C 509.14 1058.00 501.86 1058.00 495.00 1058.00 C 488.14 1058.00 481.87 1058.01 475.00 1058.00 C 468.13 1057.99 460.90 1058.01 454.00 1058.00 C 447.10 1057.99 439.85 1058.02 433.00 1058.00 C 426.15 1057.98 419.81 1058.06 413.00 1058.00 C 406.19 1057.94 398.75 1058.12 392.00 1058.00 C 385.25 1057.88 377.52 1058.26 371.00 1058.00 C 364.48 1057.74 357.03 1058.62 351.00 1058.00 C 344.97 1057.38 335.09 1059.31 330.00 1058.00 C 324.91 1056.69 314.24 1061.23 312.00 1058.00 Z"/>
</g>
</svg>